<?xml version="1.0" encoding="UTF-8" standalone="no"?>
<!DOCTYPE svg PUBLIC "-//W3C//DTD SVG 20010904//EN"
              "http://www.w3.org/TR/2001/REC-SVG-20010904/DTD/svg10.dtd">

<svg xmlns="http://www.w3.org/2000/svg"
     width="0.777778in" height="1.01111in"
     viewBox="0 0 70 91">
  <path id="Imported Path #2"
         
        d="M 68.97,47.68
           C 68.52,48.19 66.16,48.81 66.16,48.81
             66.16,48.81 66.19,49.87 65.26,50.21
             64.34,50.56 63.10,50.52 63.10,50.52
             63.10,50.52 63.27,51.76 62.11,53.20
             60.94,54.64 59.74,54.77 59.74,54.77
             59.74,54.77 59.64,56.49 58.68,57.86
             57.72,59.23 57.34,59.20 57.34,59.20
             57.34,59.20 57.52,59.98 55.63,60.22
             53.74,60.46 52.61,60.60 52.61,60.60
             52.61,60.60 53.81,61.56 50.87,61.90
             47.92,62.25 42.36,61.97 42.36,61.97
             42.36,61.97 44.28,65.67 43.32,67.36
             42.36,69.03 40.75,70.89 39.86,70.68
             39.83,71.19 39.76,71.37 39.76,71.37
             39.76,71.37 36.33,69.82 36.33,69.82
             36.33,69.82 35.92,70.85 35.92,70.85
             35.92,70.85 31.94,69.27 31.94,69.27
             31.94,69.27 31.57,69.65 31.57,69.65
             31.57,69.65 28.89,67.15 28.89,67.15
             28.89,67.15 27.73,68.62 26.80,67.73
             24.81,66.74 25.09,61.29 25.43,58.27
             25.43,58.27 25.46,57.89 25.46,57.89
             25.46,57.89 25.02,57.55 24.53,57.17
             24.53,57.17 14.88,90.33 14.88,90.33
             14.88,90.33 13.06,89.62 13.41,87.70
             13.69,86.15 21.74,63.32 24.10,56.85
             23.55,56.43 23.30,56.25 23.23,56.21
             23.10,56.14 20.87,55.77 20.90,56.56
             20.90,56.56 21.62,58.82 21.59,59.78
             21.55,60.74 21.28,61.39 20.77,60.98
             20.73,63.55 20.56,65.30 18.95,65.33
             17.99,64.03 16.89,62.62 16.86,61.90
             13.70,63.34 10.04,64.37 5.96,61.87
             5.85,61.05 5.89,60.74 5.89,60.74
             5.89,60.74 1.74,59.40 1.09,57.96
             0.54,57.38 0.03,56.83 0.03,56.83
             0.03,56.83 1.05,55.49 2.32,54.57
             2.29,52.96 3.90,51.28 4.07,51.21
             3.80,50.83 6.78,47.92 9.73,48.12
             9.73,46.82 8.46,44.83 7.46,43.77
             6.47,42.71 3.73,40.03 3.73,40.03
             3.73,40.03 3.80,39.24 3.80,39.24
             3.80,39.24 1.40,35.95 1.33,35.13
             1.05,34.68 1.36,34.55 1.36,34.55
             1.36,34.55 0.61,33.21 0.68,32.83
             0.75,32.45 1.40,32.08 1.40,32.08
             1.40,32.08 1.22,30.50 2.19,29.88
             1.88,28.48 1.02,24.50 1.57,24.06
             1.19,22.38 1.67,20.32 2.67,20.35
             1.95,18.09 1.77,15.90 2.67,15.66
             2.05,12.81 1.74,10.72 1.84,10.35
             1.95,9.97 2.12,9.90 2.32,10.07
             2.53,10.24 3.73,11.68 4.48,11.68
             5.24,11.68 6.37,11.89 6.44,12.16
             6.61,11.13 8.32,12.06 8.77,12.30
             8.84,11.78 12.13,13.19 12.47,14.49
             12.85,13.81 14.19,13.54 14.19,13.16
             14.63,13.19 15.97,13.95 16.21,14.64
             16.96,14.57 19.23,17.69 19.36,18.45
             20.05,18.69 23.13,23.22 23.92,29.40
             24.92,28.02 26.42,25.89 26.77,23.66
             27.11,21.43 28.10,19.59 28.10,19.59
             28.10,19.59 30.23,16.29 30.36,15.33
             30.57,14.92 30.71,15.28 30.71,15.28
             30.71,15.28 31.29,14.21 31.60,13.49
             31.91,12.77 32.35,13.00 32.35,13.00
             32.35,13.00 33.86,13.00 33.86,13.00
             33.86,13.00 34.68,10.03 36.74,9.17
             37.22,8.35 38.25,7.71 38.25,7.57
             38.73,5.75 39.93,4.55 40.82,4.55
             41.03,4.86 40.92,5.07 40.92,5.07
             40.92,5.07 43.46,5.99 44.08,7.22
             44.87,6.51 46.41,4.55 47.23,4.76
             47.44,3.86 48.36,3.49 48.67,3.59
             48.98,3.69 49.39,4.45 49.39,4.45
             49.39,4.45 50.90,2.53 52.34,2.63
             53.20,1.53 54.05,0.09 54.43,1.50
             54.81,2.90 54.60,4.07 55.08,4.76
             55.56,5.44 55.80,7.02 55.46,7.57
             56.25,7.95 57.00,9.28 56.73,10.10
             57.10,11.07 55.77,14.12 55.77,14.12
             55.77,14.12 58.20,15.52 57.83,17.00
             58.34,17.72 57.31,20.22 57.31,20.22
             57.31,20.22 57.38,20.56 56.83,22.14
             56.28,23.71 56.32,25.09 55.87,25.12
             56.15,25.77 56.69,27.73 55.43,28.34
             54.95,29.61 52.85,31.50 52.85,31.50
             52.85,31.50 51.83,33.72 50.39,35.23
             48.95,36.74 47.68,38.93 47.68,38.93
             47.68,38.93 54.43,36.71 55.80,37.70
             56.35,37.57 58.99,37.74 58.75,38.39
             59.75,38.35 61.19,38.66 60.60,40.44
             62.66,41.10 64.10,42.13 63.96,42.78
             64.68,42.91 65.78,44.04 65.13,44.80
             65.85,45.18 67.53,45.93 67.53,46.58
             68.83,46.82 69.41,47.16 68.97,47.68 Z" />
</svg>
