<?xml version="1.0" encoding="UTF-8" standalone="no"?>
<!DOCTYPE svg PUBLIC "-//W3C//DTD SVG 20010904//EN"
              "http://www.w3.org/TR/2001/REC-SVG-20010904/DTD/svg10.dtd">

<svg xmlns="http://www.w3.org/2000/svg"
     width="0.833333in" height="1.08889in"
     viewBox="0 0 75 98">
  <path id="Imported Path #4"
         
        d="M 71.36,60.44
           C 69.35,61.97 69.49,61.83 69.84,63.01
             70.19,64.18 70.05,63.98 69.08,65.01
             68.11,66.05 67.35,66.33 67.76,66.47
             68.18,66.61 68.59,67.16 68.94,67.23
             69.29,67.30 68.59,68.27 66.72,68.55
             64.85,68.82 65.68,69.93 65.68,69.93
             65.68,69.93 65.89,70.63 66.31,71.53
             66.72,72.43 63.81,72.15 64.16,72.50
             64.51,72.84 64.02,73.40 62.84,74.43
             61.67,75.47 63.40,75.20 62.64,75.47
             61.87,75.75 61.25,76.65 60.42,77.69
             59.59,78.73 60.49,78.45 61.32,79.49
             62.15,80.53 58.62,80.95 58.62,80.95
             58.90,81.78 58.76,82.54 57.72,83.03
             56.68,83.51 56.47,83.72 56.75,84.90
             57.03,86.07 56.40,86.21 54.81,86.49
             53.21,86.77 54.18,86.98 53.35,87.46
             52.52,87.94 53.42,88.50 53.84,89.54
             54.25,90.58 52.87,90.37 51.14,90.72
             49.41,91.06 49.47,91.82 48.44,93.28
             47.40,94.73 46.43,93.83 46.43,93.83
             46.43,93.83 45.46,95.50 44.49,94.87
             43.52,94.25 43.66,93.97 42.69,94.66
             41.72,95.36 42.27,94.73 41.30,95.84
             40.33,96.95 41.72,97.23 40.33,97.23
             38.94,97.23 37.49,95.08 36.66,94.18
             35.83,93.28 34.79,95.08 33.54,94.73
             32.29,94.39 32.57,93.14 31.74,91.55
             30.91,89.95 30.29,91.68 29.94,90.92
             29.59,90.16 29.87,89.05 29.87,87.60
             29.87,86.14 30.77,84.07 31.12,82.82
             31.46,81.57 30.36,78.73 29.80,77.07
             29.25,75.41 28.42,74.16 28.28,74.51
             28.14,74.85 24.05,78.73 22.60,79.91
             21.14,81.09 14.22,85.66 15.67,86.77
             17.12,87.88 17.89,88.57 18.44,89.75
             18.99,90.92 16.36,89.75 15.39,89.61
             14.42,89.47 13.38,89.47 11.93,89.26
             10.47,89.05 12.48,90.09 12.35,90.65
             12.21,91.20 10.54,91.20 9.09,91.06
             7.63,90.92 8.05,89.81 7.84,89.81
             7.84,89.81 7.57,89.88 7.57,89.88
             8.46,86.56 15.18,82.54 15.18,82.54
             17.06,80.26 25.09,73.60 24.81,73.67
             24.54,73.74 21.00,73.74 18.09,74.51
             15.18,75.27 15.25,76.10 13.66,76.93
             12.07,77.76 11.37,78.31 9.23,78.11
             7.08,77.90 7.15,77.21 8.39,76.38
             9.64,75.54 7.29,75.47 5.69,75.20
             4.10,74.92 6.73,74.51 5.83,73.47
             4.93,72.43 4.17,73.61 2.65,71.94
             1.12,70.28 4.93,72.29 4.59,70.76
             4.24,69.24 3.27,69.59 3.75,68.34
             4.24,67.09 3.82,67.44 2.99,66.47
             2.16,65.50 1.61,65.43 1.54,63.84
             1.47,62.25 3.13,63.15 2.23,61.28
             1.33,59.41 -0.06,61.41 0.08,60.51
             0.22,59.61 2.30,59.41 1.33,57.60
             0.36,55.80 0.91,56.22 2.44,55.60
             3.96,54.97 3.41,54.97 2.16,52.96
             0.91,50.95 1.74,50.75 3.96,50.81
             6.18,50.88 5.35,49.29 4.38,48.11
             3.41,46.94 4.17,46.17 5.62,46.04
             7.08,45.90 5.90,44.65 5.55,43.13
             5.21,41.60 6.32,42.64 7.49,42.16
             8.67,41.67 7.29,40.01 7.43,38.76
             7.56,37.51 9.43,40.15 10.06,39.59
             10.68,39.04 10.68,37.31 10.68,37.31
             10.68,37.31 12.27,37.38 11.93,35.99
             11.58,34.60 12.27,34.33 12.76,34.33
             13.24,34.33 14.42,35.02 14.42,35.02
             14.42,35.02 14.56,33.57 15.18,32.67
             15.40,32.35 15.50,32.34 15.53,32.35
             15.49,32.31 15.36,32.07 15.25,30.80
             15.05,28.23 15.32,30.45 16.36,30.73
             17.40,31.00 17.89,31.42 18.58,30.31
             19.27,29.20 18.65,28.09 18.99,28.09
             19.34,28.09 21.00,27.82 21.49,26.22
             21.97,24.63 23.36,24.63 24.33,24.14
             25.30,23.66 24.33,26.22 25.23,28.65
             26.13,31.07 26.20,29.96 26.61,29.13
             27.03,28.30 27.59,28.30 29.11,28.86
             30.63,29.41 29.80,28.58 31.19,28.16
             32.57,27.75 32.85,27.33 33.26,25.95
             33.68,24.56 34.16,24.91 35.27,25.81
             36.38,26.71 36.73,26.78 37.49,26.91
             38.25,27.05 38.11,27.05 39.29,26.15
             40.47,25.25 40.61,25.46 41.23,25.18
             41.85,24.91 41.65,25.81 41.99,22.90
             42.34,19.99 43.10,23.24 43.72,25.39
             44.35,27.54 46.15,24.28 47.60,22.62
             49.06,20.96 49.06,21.51 49.40,22.13
             49.75,22.76 50.72,24.49 51.97,23.03
             53.21,21.58 54.25,18.88 54.74,18.32
             55.22,17.77 56.96,19.57 56.96,19.57
             57.51,18.95 59.03,17.56 59.03,17.56
             59.03,17.56 59.03,17.56 59.73,16.87
             60.42,16.18 61.53,16.25 62.29,16.52
             63.05,16.80 63.40,16.18 63.95,15.62
             64.51,15.07 69.15,8.83 69.63,7.45
             70.12,6.06 71.23,5.09 71.71,4.61
             72.19,4.12 72.26,0.87 72.26,0.87
             73.93,2.53 71.71,8.49 71.71,8.49
             70.60,11.40 70.81,11.40 67.97,17.84
             65.13,24.28 67.28,22.90 67.83,22.90
             68.39,22.90 68.18,23.17 67.42,24.21
             66.65,25.25 66.52,27.54 67.21,28.02
             67.90,28.51 67.69,29.89 67.69,29.89
             67.69,29.89 66.45,31.49 66.17,32.46
             65.89,33.43 66.45,32.32 66.72,33.22
             67.00,34.12 66.51,34.26 65.89,35.37
             65.27,36.47 66.58,36.54 67.35,37.58
             68.11,38.62 66.24,39.04 66.51,39.59
             66.79,40.15 66.24,40.84 65.20,41.60
             64.16,42.36 66.58,42.36 67.55,42.36
             68.52,42.36 68.38,43.33 67.69,44.30
             67.00,45.27 66.45,46.24 65.62,46.87
             64.78,47.49 65.20,48.18 65.62,49.08
             66.03,49.98 64.02,51.72 64.02,51.72
             62.91,52.96 65.55,51.72 65.55,51.72
             65.55,51.72 65.55,51.72 67.00,52.20
             68.45,52.68 66.10,53.38 64.92,53.72
             63.75,54.07 64.58,54.62 65.89,55.53
             67.21,56.43 65.62,55.87 65.75,56.63
             65.89,57.40 66.86,56.77 67.62,56.70
             68.39,56.63 68.94,57.88 70.74,57.60
             72.54,57.33 72.68,57.53 74.06,57.53
             75.45,57.53 73.37,58.92 71.36,60.44 Z" />
</svg>
