<?xml version="1.0" encoding="UTF-8" standalone="no"?>
<!DOCTYPE svg PUBLIC "-//W3C//DTD SVG 20010904//EN"
              "http://www.w3.org/TR/2001/REC-SVG-20010904/DTD/svg10.dtd">

<svg xmlns="http://www.w3.org/2000/svg"
     width="0.955556in" height="0.911111in"
     viewBox="0 0 86 82">
  <path id="Imported Path #18"
         
        d="M 85.71,76.48
           C 86.66,77.39 83.47,78.18 82.40,77.21
             80.03,75.08 77.67,72.94 75.30,70.80
             68.67,64.79 62.02,58.81 55.42,52.78
             56.50,54.62 53.96,54.45 54.11,56.58
             54.56,56.95 54.80,60.36 54.96,60.96
             54.59,62.24 54.32,65.53 53.48,66.91
             53.13,67.49 54.09,69.01 53.80,69.56
             53.61,69.91 49.93,71.74 50.52,72.99
             49.97,72.52 49.66,74.55 48.85,75.12
             47.92,75.77 47.79,76.56 47.37,76.89
             47.33,76.92 44.20,77.14 43.95,76.85
             44.86,79.67 37.15,79.62 37.09,80.08
             37.08,80.16 37.43,81.24 37.33,81.16
             37.40,81.22 35.50,79.30 35.52,79.45
             36.02,79.92 36.11,80.37 35.78,80.82
             34.44,80.45 34.09,80.56 32.73,80.04
             32.57,79.97 31.72,81.70 32.02,81.46
             32.11,81.39 28.00,80.68 27.84,80.78
             27.39,80.39 26.95,80.01 26.52,79.62
             26.24,79.62 24.67,78.83 24.44,78.82
             24.52,79.20 24.56,79.59 24.54,79.98
             24.13,79.73 23.27,78.85 22.78,78.79
             23.53,78.88 22.00,79.50 22.47,79.63
             22.30,79.58 20.59,77.91 21.13,79.07
             20.67,78.57 13.39,76.94 13.50,77.44
             12.99,77.16 11.34,76.67 11.77,75.55
             12.38,73.97 15.40,74.82 14.44,71.47
             14.09,70.28 14.41,65.77 15.29,66.64
             14.24,63.92 18.69,54.69 20.92,55.08
             19.64,54.86 26.05,48.69 26.70,48.28
             28.19,47.35 34.34,45.26 36.89,45.54
             40.04,46.47 43.84,45.07 45.93,47.25
             46.33,46.40 52.08,52.45 52.73,53.36
             52.64,53.41 54.19,52.18 54.44,51.90
             53.17,50.75 42.49,40.01 41.46,40.75
             38.28,43.02 32.20,46.16 28.09,45.63
             26.95,45.48 22.57,44.38 22.42,44.57
             22.03,45.08 19.00,41.07 20.19,43.64
             19.98,42.95 19.59,42.57 19.01,42.49
             19.05,42.71 19.05,42.93 18.99,43.15
             19.39,43.12 13.35,39.11 13.59,38.88
             13.37,38.53 14.61,40.68 14.43,40.54
             13.98,40.19 9.25,33.89 10.87,36.97
             11.12,35.03 3.38,29.48 4.61,27.17
             4.86,27.43 5.09,27.71 5.31,28.00
             5.30,27.98 5.59,27.83 5.56,27.87
             5.41,27.23 5.13,26.65 4.73,26.12
             6.47,28.55 3.05,21.75 3.47,21.79
             3.45,21.63 4.25,22.33 4.32,22.27
             3.87,22.67 2.14,14.26 1.94,13.67
             1.94,13.45 2.62,14.01 2.67,13.84
             2.49,13.03 2.15,12.28 1.67,11.58
             3.00,13.08 0.44,7.15 0.60,6.73
             0.23,7.69 0.70,3.42 1.06,3.23
             1.63,3.96 2.33,4.49 3.16,4.81
             4.21,3.12 4.88,7.06 7.21,5.28
             8.14,4.57 10.04,2.37 11.59,2.83
             13.35,3.36 13.23,2.24 15.01,2.23
             17.44,2.66 16.53,0.97 17.58,0.68
             18.19,0.51 22.15,3.19 23.47,3.26
             24.59,3.32 27.09,4.20 28.48,4.01
             26.38,-0.14 33.73,8.27 34.49,8.17
             34.87,8.12 34.69,7.19 34.69,7.00
             34.50,6.80 37.20,10.14 36.25,8.15
             36.93,9.07 36.90,9.19 36.97,8.61
             36.86,9.60 40.72,12.16 40.13,11.62
             43.10,14.34 44.88,18.57 46.42,22.19
             47.51,24.76 46.37,26.89 46.82,29.68
             47.04,32.45 44.54,36.84 43.04,38.95
             44.84,40.35 46.70,41.77 48.32,43.35
             44.97,33.86 50.15,20.50 59.65,16.92
             60.84,16.47 63.17,16.69 62.59,14.89
             63.63,14.63 62.88,12.53 64.49,13.81
             66.14,15.01 65.15,13.53 66.22,13.47
             66.60,11.96 73.87,13.24 74.91,13.30
             75.51,13.34 75.10,11.44 75.10,11.23
             76.12,11.60 76.52,11.20 76.31,10.04
             76.63,9.62 78.38,15.28 78.45,15.47
             79.06,17.01 80.26,20.55 80.11,22.18
             79.95,23.86 81.16,28.10 81.58,29.49
             82.45,32.35 81.71,35.05 82.04,37.72
             82.09,38.15 81.29,37.41 81.18,37.55
             81.35,38.15 81.45,38.76 81.50,39.38
             81.21,39.47 80.92,39.45 80.65,39.33
             80.68,39.92 77.96,45.36 78.22,45.44
             78.25,45.81 74.98,49.91 74.20,49.84
             70.34,53.21 64.91,54.10 59.95,53.51
             68.57,61.11 77.40,68.56 85.71,76.48
             86.61,77.34 85.20,76.00 85.71,76.48 Z" />
</svg>
