<?xml version="1.0" encoding="UTF-8" standalone="no"?>
<!DOCTYPE svg PUBLIC "-//W3C//DTD SVG 20010904//EN"
              "http://www.w3.org/TR/2001/REC-SVG-20010904/DTD/svg10.dtd">

<svg xmlns="http://www.w3.org/2000/svg"
     width="0.733333in" height="0.988889in"
     viewBox="0 0 66 89">
  <path id="Imported Path #11"
         
        d="M 63.67,58.81
           C 63.03,58.98 62.43,59.64 61.29,60.42
             60.01,61.28 59.61,62.32 58.53,62.83
             57.45,63.34 57.17,63.41 56.10,64.51
             55.04,65.62 55.05,65.23 53.79,65.64
             52.53,66.05 52.97,66.13 52.60,66.71
             52.22,67.29 51.42,67.07 51.13,67.21
             50.84,67.35 50.56,67.76 50.17,67.75
             49.78,67.74 48.07,68.45 47.57,68.68
             47.07,68.91 46.61,68.89 45.66,69.10
             44.70,69.30 45.09,69.31 44.82,69.33
             44.56,69.34 43.87,69.20 43.41,69.18
             42.96,69.16 42.66,69.69 42.55,69.93
             42.44,70.17 42.15,69.98 42.15,69.98
             42.15,69.98 41.11,69.91 41.11,69.91
             41.11,69.91 40.40,69.84 40.40,69.84
             40.40,69.84 40.24,70.33 40.24,70.33
             40.24,70.33 38.44,70.51 36.02,69.51
             33.59,68.52 30.32,68.14 29.56,72.05
             28.80,75.96 22.48,88.29 22.48,88.29
             22.48,88.29 21.54,87.38 21.19,87.18
             20.84,86.99 20.00,86.89 20.00,86.89
             27.54,77.09 27.91,70.81 28.00,69.98
             28.10,69.15 29.17,69.03 26.71,68.55
             24.25,68.07 24.92,68.01 23.71,68.49
             22.50,68.98 19.87,67.03 17.91,66.65
             15.96,66.27 15.18,65.92 13.72,65.31
             12.27,64.70 12.60,64.37 12.60,64.37
             12.60,64.37 11.07,63.81 10.39,63.28
             9.70,62.76 9.59,62.34 8.12,61.14
             6.65,59.94 7.04,59.95 5.57,58.42
             4.10,56.89 5.19,57.36 4.48,56.31
             3.76,55.25 3.61,55.03 3.01,54.06
             2.42,53.09 2.54,52.79 1.14,50.88
             -0.25,48.97 0.51,48.73 0.51,48.73
             0.51,48.73 1.13,48.92 1.94,49.79
             2.75,50.67 2.30,49.66 5.02,50.13
             7.75,50.59 6.03,50.33 7.76,50.53
             9.49,50.74 8.76,50.79 10.05,50.85
             11.35,50.90 11.23,51.20 12.05,51.37
             12.87,51.52 13.03,51.69 13.69,52.34
             14.35,52.99 15.68,53.90 15.98,54.03
             16.29,54.15 17.06,53.52 17.23,53.35
             17.39,53.19 17.14,52.09 17.14,52.09
             17.14,52.09 17.07,51.82 17.07,51.82
             17.07,50.77 15.72,49.98 15.40,49.59
             15.09,49.20 15.40,48.61 13.26,48.13
             11.13,47.65 12.14,47.85 11.79,47.65
             11.43,47.45 11.43,47.12 10.98,47.10
             10.52,47.08 9.91,46.89 9.91,46.89
             9.91,46.89 8.44,46.02 8.65,45.92
             8.87,45.84 7.74,44.90 6.43,44.58
             5.11,44.25 6.05,44.18 5.79,43.47
             5.54,42.77 4.81,42.43 3.42,40.85
             2.03,39.27 2.15,39.62 2.32,38.74
             2.50,37.85 3.11,38.04 3.62,37.48
             4.12,36.93 4.64,36.24 4.03,35.01
             3.42,33.78 3.78,33.92 3.50,33.01
             3.22,32.10 3.51,31.96 3.78,30.58
             4.05,29.19 4.13,30.12 4.38,28.86
             4.62,27.60 4.28,27.33 4.19,24.76
             4.10,22.19 4.19,21.42 4.23,22.22
             4.27,23.01 6.37,24.99 7.33,25.77
             8.29,26.54 8.56,26.53 9.39,26.95
             10.23,27.38 10.38,26.95 10.38,26.95
             10.38,26.95 11.29,27.98 11.90,28.23
             12.50,28.47 12.56,28.16 13.93,28.23
             15.29,28.29 15.30,28.56 15.32,29.81
             15.34,31.05 15.58,31.17 16.89,32.14
             18.21,33.12 18.07,32.83 18.42,33.75
             18.76,34.67 19.38,35.18 19.38,35.18
             21.38,38.05 19.94,36.66 21.86,38.28
             23.77,39.90 22.87,37.43 22.50,36.64
             22.13,35.85 20.56,33.51 19.31,31.83
             18.07,30.14 18.72,29.16 17.24,27.69
             15.76,26.23 16.54,26.25 15.41,24.65
             14.28,23.06 15.64,24.44 15.13,22.70
             14.62,20.96 14.46,20.41 14.46,20.41
             14.46,20.41 15.25,20.43 14.95,19.59
             14.66,18.74 15.27,18.60 15.47,17.92
             15.67,17.24 15.56,16.11 14.68,14.23
             13.80,12.36 14.43,12.81 14.88,13.22
             15.32,13.64 15.60,13.89 16.94,15.07
             18.28,16.24 19.01,15.86 19.54,16.16
             20.07,16.46 20.49,16.35 21.70,16.84
             22.92,17.34 22.87,18.58 25.21,21.00
             27.56,23.42 26.18,21.44 26.17,21.12
             26.17,20.79 26.26,18.97 25.99,16.69
             25.71,14.41 25.99,16.69 26.29,16.49
             26.59,16.29 26.12,15.34 26.18,14.37
             26.23,13.40 26.34,12.84 26.50,11.36
             26.66,9.88 27.21,12.41 27.21,12.41
             27.21,12.41 28.92,12.03 29.20,11.62
             29.47,11.22 30.32,11.58 30.79,11.21
             31.25,10.84 31.35,10.67 31.62,9.28
             31.89,7.89 32.18,8.73 32.74,7.86
             33.31,6.99 33.37,7.65 34.13,7.15
             34.88,6.64 35.08,5.63 34.98,3.78
             34.88,1.93 35.61,1.87 36.55,1.07
             37.49,0.27 36.30,2.73 36.53,4.21
             36.77,5.70 37.00,5.48 37.04,5.29
             37.08,5.10 37.30,6.32 37.58,7.23
             37.86,8.14 38.43,8.90 38.36,8.30
             38.28,7.69 38.48,8.98 38.48,9.69
             38.47,10.41 39.84,11.79 40.05,11.37
             40.26,10.96 40.53,11.27 41.83,10.61
             43.14,9.95 41.84,11.59 41.80,13.15
             41.76,14.72 42.44,14.59 42.80,14.07
             43.16,13.55 43.10,13.87 43.05,14.77
             43.02,15.43 43.01,16.14 43.07,16.41
             42.93,16.57 42.72,17.00 42.49,18.00
             42.04,20.01 42.03,19.68 42.11,22.32
             42.19,24.95 42.32,22.95 43.00,23.14
             43.68,23.34 46.58,20.57 47.33,20.06
             48.08,19.55 48.83,19.43 49.93,18.79
             51.04,18.16 50.30,18.28 53.40,17.77
             54.54,17.58 55.00,17.55 55.16,17.56
             55.70,17.12 57.05,15.20 57.05,15.20
             57.05,15.20 56.71,17.30 56.19,18.96
             55.67,20.63 56.08,19.86 55.84,20.40
             55.60,20.95 55.18,22.11 55.01,23.65
             54.84,25.18 56.00,23.97 55.92,24.35
             55.85,24.72 54.63,25.27 54.09,27.07
             53.54,28.86 54.13,27.53 54.51,27.93
             54.89,28.33 54.36,28.36 53.48,28.85
             52.60,29.33 52.76,29.49 52.84,30.10
             52.92,30.70 52.19,30.43 51.61,30.71
             51.03,30.99 50.33,32.23 49.78,32.71
             49.23,33.19 48.64,33.21 47.92,33.85
             47.21,34.50 47.14,34.82 46.87,35.55
             46.60,36.28 45.24,36.87 44.27,38.18
             43.29,39.50 43.82,39.80 43.89,40.47
             43.95,41.13 44.60,40.87 45.23,40.99
             45.86,41.11 47.31,40.02 47.90,39.35
             48.49,38.68 49.39,37.41 49.68,36.62
             49.96,35.82 50.47,35.92 50.74,35.19
             51.02,34.45 51.84,34.94 52.43,34.60
             53.02,34.25 53.56,34.16 54.54,33.50
             55.52,32.84 55.28,34.04 55.46,33.81
             55.63,33.58 57.07,32.95 57.57,32.39
             58.07,31.83 57.69,33.46 58.05,34.32
             58.40,35.17 59.24,34.22 59.88,33.95
             60.53,33.68 61.07,34.58 61.73,34.57
             62.38,34.57 63.86,33.68 64.43,32.81
             64.99,31.93 64.51,31.38 64.98,32.98
             65.46,34.58 63.76,36.60 63.84,37.21
             63.91,37.81 63.84,37.21 63.68,38.36
             63.52,39.50 62.59,40.24 62.98,39.92
             63.37,39.60 62.98,39.92 62.75,41.12
             62.51,42.32 61.91,42.40 61.94,43.58
             61.97,44.77 62.60,45.22 62.10,45.77
             61.60,46.33 60.04,46.94 60.04,46.94
             60.04,46.94 60.04,46.94 59.94,47.45
             59.85,47.95 59.45,48.66 58.36,48.52
             57.28,48.37 58.09,48.59 57.47,49.06
             56.86,49.53 56.93,49.15 56.15,49.79
             55.37,50.42 55.63,50.47 54.61,50.67
             53.58,50.86 53.54,51.11 53.17,51.63
             52.81,52.15 52.57,52.04 51.92,52.37
             51.26,52.70 49.39,52.93 48.04,53.45
             46.69,53.97 46.62,55.40 46.71,56.27
             46.80,57.13 48.37,56.13 50.64,55.59
             52.90,55.05 54.17,55.62 55.08,55.60
             56.00,55.59 55.74,56.26 56.62,56.49
             57.49,56.73 58.13,56.78 59.91,57.06
             61.69,57.34 60.51,57.64 61.82,58.35
             62.49,58.72 63.23,58.80 63.67,58.81 Z" />
</svg>
