<?xml version="1.0" encoding="UTF-8" standalone="no"?>
<!DOCTYPE svg PUBLIC "-//W3C//DTD SVG 20010904//EN"
              "http://www.w3.org/TR/2001/REC-SVG-20010904/DTD/svg10.dtd">

<svg xmlns="http://www.w3.org/2000/svg"
     width="0.611111in" height="0.988889in"
     viewBox="0 0 55 89">
  <path id="Imported Path"
         
        d="M 3.55,40.73
           C 3.55,40.73 5.21,37.40 6.00,32.51
             6.00,32.51 11.75,20.29 28.87,6.77
             28.87,6.77 33.35,5.46 34.44,4.33
             35.53,3.20 43.98,2.65 48.39,0.05
             48.39,0.05 49.79,6.93 50.49,7.94
             51.19,8.96 53.32,17.96 53.90,18.90
             53.90,18.90 55.00,29.07 53.95,30.85
             53.95,30.85 53.13,46.29 44.94,60.10
             44.94,60.10 27.39,88.54 10.54,80.56
             10.54,80.56 9.41,86.64 8.79,87.76
             8.18,88.89 6.90,88.92 6.63,87.31
             6.37,85.70 8.43,79.93 8.43,79.93
             8.43,79.93 -5.81,67.28 3.55,40.73 Z" />
</svg>
