<?xml version="1.0" encoding="UTF-8" standalone="no"?>
<!DOCTYPE svg PUBLIC "-//W3C//DTD SVG 20010904//EN"
              "http://www.w3.org/TR/2001/REC-SVG-20010904/DTD/svg10.dtd">

<svg xmlns="http://www.w3.org/2000/svg"
     width="1.07778in" height="0.9in"
     viewBox="0 0 97 81">
  <path id="Imported Path #20"
         
        d="M 91.36,56.37
           C 92.25,57.31 92.25,57.31 92.25,57.31
             92.25,57.31 88.91,58.73 88.91,58.73
             88.91,58.73 89.16,59.47 89.16,59.47
             89.16,59.47 83.75,58.87 83.76,59.46
             83.77,60.05 85.86,59.93 85.77,60.90
             85.67,61.86 84.35,62.06 82.53,63.31
             82.53,63.31 82.39,64.41 81.99,64.17
             81.59,63.94 78.75,62.68 78.38,62.51
             78.00,62.34 78.66,63.58 78.40,63.62
             78.13,63.66 78.13,63.66 78.13,63.66
             78.13,63.66 75.22,62.85 74.47,62.45
             73.73,62.05 70.77,61.76 69.75,61.46
             68.74,61.16 68.74,61.16 68.74,61.16
             68.74,61.16 67.31,59.75 65.95,59.75
             68.29,62.60 72.11,66.41 72.11,66.41
             80.94,74.31 88.73,75.88 88.73,75.88
             91.00,76.45 92.43,77.33 92.43,77.33
             92.43,77.33 91.39,80.72 91.39,80.72
             91.39,80.72 88.39,78.82 88.39,78.82
             73.68,73.11 65.19,62.18 64.26,60.94
             64.07,61.32 63.91,61.81 63.80,62.43
             63.80,62.43 59.26,66.15 57.56,71.52
             57.56,71.52 56.14,72.62 56.16,71.12
             56.18,69.62 54.51,73.37 53.51,73.53
             52.52,73.69 50.91,72.82 50.22,74.57
             49.34,74.94 48.83,74.76 48.83,72.81
             48.83,72.81 44.51,74.98 44.51,74.98
             44.51,74.98 44.18,73.78 44.18,73.78
             44.18,73.78 39.48,75.85 39.48,75.85
             39.48,75.85 39.46,74.09 39.46,74.09
             39.46,74.09 33.20,74.12 33.20,74.12
             33.20,74.12 33.12,73.01 33.12,73.01
             33.12,73.01 25.07,72.08 25.40,71.98
             25.74,71.88 28.79,69.32 28.79,69.32
             28.79,69.32 28.41,68.57 28.41,68.57
             28.41,68.57 31.79,65.39 31.79,65.39
             31.79,65.39 22.86,65.48 22.86,65.48
             22.86,65.48 23.67,63.87 23.67,63.87
             23.67,63.87 18.31,63.40 18.31,63.40
             18.31,63.40 18.98,62.49 18.98,62.49
             18.98,62.49 16.29,62.09 16.29,62.09
             16.29,62.09 16.57,61.21 16.57,61.21
             16.57,61.21 13.94,60.17 13.94,60.17
             13.94,60.17 16.63,58.02 16.63,58.02
             16.63,58.02 11.20,56.90 11.20,56.90
             11.20,56.90 12.74,55.81 12.74,55.81
             12.74,55.81 8.39,53.69 8.39,53.69
             8.39,53.69 9.84,52.86 9.84,52.86
             9.84,52.86 8.45,51.16 8.45,51.16
             8.45,51.16 7.84,52.01 7.84,52.01
             7.84,52.01 6.22,50.02 6.22,50.02
             6.22,50.02 5.05,49.97 5.05,49.97
             5.05,49.97 5.48,48.97 5.48,48.97
             5.48,48.97 3.22,46.14 0.95,44.68
             -1.31,43.22 6.88,44.68 8.40,44.38
             9.93,44.07 11.31,43.95 11.31,43.95
             11.31,43.95 11.43,42.79 11.43,42.79
             11.43,42.79 13.69,43.01 14.47,43.03
             15.25,43.04 15.23,42.51 15.23,42.51
             15.23,42.51 17.19,42.51 17.19,42.51
             17.19,42.51 17.41,42.27 17.41,42.27
             17.41,42.27 19.39,42.60 19.39,42.60
             19.39,42.60 19.87,39.13 19.87,39.13
             19.87,39.13 22.58,39.34 22.58,39.34
             22.58,39.34 22.85,38.58 22.85,38.58
             22.85,38.58 25.63,39.51 25.63,39.51
             25.63,39.51 25.61,38.33 25.61,38.33
             25.61,38.33 26.90,38.46 26.90,38.46
             26.90,38.46 25.79,37.24 25.79,37.24
             25.79,37.24 26.68,36.81 26.68,36.81
             26.68,36.81 24.64,35.37 24.64,35.37
             24.64,35.37 24.75,34.27 24.75,34.27
             24.75,34.27 23.54,32.98 23.54,32.98
             23.54,32.98 25.85,32.62 25.85,32.62
             25.85,32.62 23.83,30.73 23.83,30.73
             23.83,30.73 23.32,29.96 23.32,29.96
             23.32,29.96 21.87,28.78 21.87,28.78
             21.87,28.78 23.43,28.80 23.43,28.80
             23.43,28.80 24.03,28.67 22.34,26.74
             22.34,26.74 20.48,27.08 22.22,25.88
             22.22,25.88 20.61,23.77 20.61,23.77
             20.61,23.77 24.99,24.20 24.99,24.20
             24.99,24.20 24.82,23.34 24.82,23.34
             24.82,23.34 27.33,23.59 27.33,23.59
             27.33,23.59 27.90,23.12 27.90,23.12
             27.90,23.12 29.62,23.55 29.62,23.55
             29.62,23.55 29.56,21.53 29.56,21.53
             29.56,21.53 29.17,20.19 29.17,20.19
             29.17,20.19 29.03,19.59 29.03,19.59
             29.03,19.59 30.72,19.62 30.72,19.62
             30.72,19.62 29.55,17.62 29.55,17.62
             29.55,17.62 30.33,17.63 30.33,17.63
             30.33,17.63 30.15,15.53 30.15,15.53
             30.15,15.53 33.52,15.73 33.52,15.73
             33.52,15.73 32.55,13.64 32.55,13.64
             32.55,13.64 33.72,13.66 33.72,13.66
             33.72,13.66 33.97,12.12 33.32,11.76
             32.67,11.40 32.34,10.83 33.02,10.90
             33.70,10.97 33.96,11.24 34.16,10.77
             34.35,10.30 34.69,1.88 34.59,0.95
             34.59,0.95 36.44,-1.02 41.29,8.30
             41.29,8.30 43.00,10.23 43.00,10.23
             43.00,10.23 44.09,10.04 44.09,10.04
             44.09,10.04 45.11,12.10 45.11,12.10
             45.11,12.10 46.14,12.00 46.14,12.00
             46.14,12.00 47.73,14.21 47.73,14.21
             47.73,14.21 50.19,13.09 50.19,13.09
             50.19,13.09 51.87,15.35 51.87,15.35
             51.87,15.35 52.54,15.03 52.54,15.03
             52.54,15.03 53.05,16.79 53.05,16.79
             53.05,16.79 54.45,16.39 54.45,16.39
             54.45,16.39 54.36,17.80 54.36,17.80
             54.36,17.80 55.79,19.16 55.79,19.16
             55.79,19.16 59.43,18.40 59.43,18.40
             59.43,18.40 61.32,17.61 61.32,17.61
             61.32,17.61 62.05,17.10 62.05,17.10
             62.05,17.10 63.26,19.17 63.26,19.17
             63.26,19.17 64.76,19.32 64.76,19.32
             64.76,19.32 65.10,21.30 65.10,21.30
             65.10,21.30 66.62,21.07 66.62,21.07
             66.62,21.07 66.78,23.46 66.78,23.46
             66.78,23.46 67.20,23.47 67.20,23.47
             67.20,23.47 67.03,25.50 67.03,25.50
             67.03,25.50 69.50,25.29 69.50,25.29
             69.50,25.29 70.19,28.13 70.19,28.13
             70.19,28.13 70.89,26.96 70.89,26.96
             70.89,26.96 73.90,28.88 73.90,28.88
             73.90,28.88 75.25,27.07 75.25,27.07
             75.25,27.07 75.85,27.58 75.85,27.58
             75.85,27.58 77.67,26.29 77.67,26.29
             77.67,26.29 78.36,27.21 78.36,27.21
             78.36,27.21 83.74,24.19 83.74,24.19
             83.74,24.19 84.01,25.72 84.01,25.72
             84.01,25.72 84.16,27.49 84.16,27.49
             84.16,27.49 85.58,27.96 85.58,27.96
             85.58,27.96 85.25,29.91 85.25,29.91
             85.25,29.91 86.81,31.63 86.81,31.63
             86.81,31.63 88.21,31.61 88.21,31.61
             88.21,31.61 88.10,34.39 88.10,34.39
             88.10,34.39 89.09,34.23 89.09,34.23
             89.09,34.23 88.99,36.96 88.99,36.96
             88.99,36.96 92.80,37.24 92.80,37.24
             92.80,37.24 92.90,38.91 92.90,38.91
             92.90,38.91 93.44,39.03 93.44,39.03
             93.44,39.03 92.98,40.09 92.98,40.09
             92.98,40.09 94.25,40.41 94.25,40.41
             94.25,40.41 92.29,42.43 92.29,42.43
             92.29,42.43 93.67,43.32 93.67,43.32
             93.67,43.32 91.95,45.23 91.95,45.23
             91.95,45.23 92.47,45.54 92.47,45.54
             92.47,45.54 89.94,47.73 89.94,47.73
             89.94,47.73 92.24,48.19 92.24,48.19
             92.24,48.19 93.30,48.69 93.30,48.69
             93.30,48.69 93.80,49.52 93.80,49.52
             93.80,49.52 96.28,49.50 96.28,49.50
             96.28,49.50 93.84,53.10 93.84,53.10
             93.84,53.10 94.27,53.34 94.27,53.34
             94.27,53.34 90.48,55.44 91.36,56.37 Z" />
</svg>
