<?xml version="1.0" encoding="UTF-8" standalone="no"?>
<!DOCTYPE svg PUBLIC "-//W3C//DTD SVG 20010904//EN"
              "http://www.w3.org/TR/2001/REC-SVG-20010904/DTD/svg10.dtd">

<svg xmlns="http://www.w3.org/2000/svg"
     width="1.03333in" height="0.988889in"
     viewBox="0 0 93 89">
  <path id="Imported Path #10"
         
        d="M 92.39,42.18
           C 91.00,43.38 88.94,48.21 88.94,48.21
             88.94,48.21 90.01,48.61 90.01,48.61
             90.01,48.61 87.95,50.86 87.95,50.86
             87.95,50.86 89.47,52.12 89.47,52.12
             89.47,52.12 85.43,54.44 86.16,54.50
             86.89,54.57 88.22,55.50 88.22,55.50
             88.22,55.50 87.55,56.69 86.69,57.09
             85.83,57.48 86.23,58.01 85.70,58.34
             85.17,58.67 84.31,59.14 84.31,59.14
             85.43,59.93 86.63,59.73 86.63,59.73
             86.43,62.19 83.18,62.52 82.98,62.91
             82.78,63.31 84.18,63.51 84.04,63.84
             83.91,64.17 81.66,65.03 81.66,65.03
             81.66,65.03 81.66,65.03 82.45,65.83
             83.25,66.62 84.51,66.62 84.31,67.15
             84.11,67.68 80.27,69.27 80.00,69.54
             79.74,69.80 80.40,69.74 80.73,70.20
             81.06,70.66 77.95,70.73 77.42,71.13
             76.89,71.52 78.21,72.72 78.21,72.72
             78.21,72.72 73.78,72.72 74.11,73.18
             74.44,73.64 76.89,75.96 76.62,76.56
             76.36,77.15 73.18,78.01 73.18,78.01
             73.18,78.01 73.45,78.61 73.45,78.61
             73.45,78.61 71.19,79.21 71.19,79.21
             71.19,79.21 71.46,79.67 71.46,80.33
             71.46,81.00 67.22,80.20 67.22,80.47
             67.22,80.73 67.09,81.92 67.09,81.92
             66.36,82.37 63.58,81.63 62.75,81.39
             63.09,81.67 63.18,82.70 62.85,82.92
             62.45,83.18 58.74,81.99 58.74,81.99
             58.74,81.99 58.15,84.31 58.15,84.31
             56.89,85.17 53.71,82.19 53.64,82.45
             53.58,82.72 53.51,83.58 52.92,83.25
             52.32,82.92 51.19,80.86 51.26,80.00
             51.33,79.14 50.33,80.80 50.27,80.46
             50.20,80.13 50.27,78.94 50.27,77.55
             50.27,76.16 49.47,73.84 49.41,72.05
             49.34,70.26 49.01,70.06 47.88,68.81
             46.76,67.55 45.17,65.36 45.17,65.36
             45.50,64.49 45.38,63.52 44.98,63.03
             44.95,64.37 45.05,66.08 45.65,67.92
             46.45,70.32 46.80,78.93 48.04,81.33
             48.12,85.24 47.82,87.54 47.82,87.54
             47.82,87.54 46.36,88.74 46.36,88.74
             46.36,88.74 46.23,81.38 46.09,79.13
             46.09,79.13 45.21,71.22 44.77,70.12
             44.33,69.02 43.53,66.32 43.44,65.22
             43.44,65.22 43.37,64.69 43.31,64.00
             43.05,64.56 42.83,65.12 42.65,65.30
             42.25,65.69 41.72,65.63 39.87,66.42
             38.02,67.22 32.38,72.18 31.72,73.38
             31.06,74.57 29.21,76.95 27.62,77.75
             26.03,78.54 27.62,76.82 26.82,77.02
             26.03,77.22 24.24,78.94 24.24,78.61
             24.24,78.28 24.77,77.42 24.04,77.88
             23.31,78.34 17.28,79.01 18.28,78.15
             19.27,77.28 18.81,75.76 19.27,75.03
             19.74,74.30 18.48,74.77 17.02,74.77
             15.56,74.77 15.16,75.63 15.30,75.23
             15.43,74.83 15.30,74.24 15.30,74.24
             12.18,75.16 9.53,72.85 10.06,72.65
             10.59,72.45 11.06,70.20 11.06,70.20
             11.06,70.20 9.20,70.00 8.41,69.01
             7.61,68.01 8.61,68.67 8.81,68.28
             9.00,67.88 4.70,65.63 4.70,65.63
             4.70,65.63 5.96,64.10 6.02,63.90
             6.09,63.71 2.58,61.65 2.38,60.79
             2.18,59.93 3.91,60.86 3.31,59.67
             2.71,58.47 0.66,57.22 1.19,57.02
             1.72,56.82 2.98,57.35 1.85,56.42
             0.73,55.49 -0.27,51.39 0.46,51.45
             1.19,51.52 4.10,52.05 5.23,50.86
             6.36,49.66 3.24,48.21 3.24,47.28
             3.24,46.35 5.36,47.48 4.83,46.88
             4.30,46.29 2.32,44.37 3.24,44.23
             4.17,44.10 3.91,43.77 3.91,43.77
             3.38,43.04 2.32,40.92 1.65,39.33
             2.38,38.34 5.23,39.60 6.42,38.67
             7.61,37.74 5.16,35.69 5.03,34.57
             4.90,33.44 7.35,35.03 7.68,34.70
             8.01,34.37 7.22,33.84 6.29,32.91
             5.36,31.98 6.29,30.66 5.76,28.41
             5.23,26.16 6.36,27.61 6.36,27.61
             6.82,28.41 10.59,28.93 10.93,28.47
             11.26,28.01 10.06,26.42 10.26,25.89
             10.46,25.36 11.85,26.29 11.99,25.49
             12.12,24.70 12.12,21.19 12.65,20.66
             13.18,20.13 15.36,22.44 15.36,21.98
             15.36,21.52 16.62,16.95 16.62,16.95
             16.54,18.07 18.18,18.45 18.54,17.87
             19.54,16.28 18.61,14.23 19.47,13.04
             20.33,11.85 20.40,13.97 21.26,13.70
             22.12,13.44 23.05,11.12 23.05,11.12
             23.05,11.12 22.78,11.85 22.78,11.85
             24.04,13.44 24.97,7.48 24.97,7.48
             25.76,6.22 25.63,5.23 26.03,6.48
             25.90,10.32 29.01,13.83 29.01,13.83
             29.01,13.83 29.14,12.77 29.74,13.37
             30.33,13.97 32.39,18.27 32.92,18.01
             33.45,17.74 33.18,15.09 33.18,15.09
             33.18,15.09 33.51,15.03 34.24,15.49
             34.97,15.95 37.22,9.13 37.16,9.53
             37.09,9.93 39.81,13.11 40.34,13.30
             40.87,13.50 41.73,10.72 41.73,10.72
             41.73,10.72 41.86,11.52 42.52,11.19
             43.18,10.86 44.51,6.75 44.90,5.76
             45.30,4.76 46.49,8.01 46.76,8.41
             47.02,8.80 48.35,7.21 49.14,6.02
             49.94,4.83 49.14,6.28 49.81,7.15
             50.47,8.01 49.94,6.09 50.80,5.03
             51.66,3.97 53.32,2.18 53.18,2.84
             53.05,3.50 54.64,5.62 54.91,5.36
             55.17,5.09 57.29,3.50 58.55,2.58
             59.81,1.65 58.88,4.70 58.88,4.70
             58.88,4.70 61.27,3.11 62.19,2.11
             63.12,1.12 63.45,1.71 63.52,2.91
             63.58,4.10 64.71,3.17 65.70,2.77
             66.70,2.38 68.09,1.72 68.62,1.45
             69.15,1.19 71.20,0.92 72.59,0.86
             73.98,0.79 75.04,0.99 75.04,0.99
             75.04,0.99 73.92,2.31 73.32,2.51
             72.77,2.69 71.32,3.94 71.11,4.13
             71.19,4.07 71.34,3.99 71.13,4.50
             70.87,5.16 70.87,5.56 71.27,5.36
             71.67,5.16 70.47,8.60 71.07,9.20
             71.67,9.80 72.33,8.47 72.33,8.73
             72.33,9.00 72.79,11.78 72.86,12.58
             72.92,13.37 73.32,12.91 73.98,12.78
             74.64,12.64 75.11,12.58 75.11,12.58
             75.84,13.44 74.31,17.08 74.31,17.08
             74.31,17.74 74.58,17.28 75.17,17.15
             75.77,17.02 74.84,18.94 75.11,19.73
             75.37,20.52 77.56,19.20 77.62,19.73
             77.69,20.26 76.76,26.62 76.76,26.62
             76.76,26.62 79.61,26.68 79.61,26.68
             79.61,26.68 79.02,28.54 78.68,30.00
             78.35,31.45 79.35,30.26 79.55,30.26
             79.74,30.26 78.75,30.59 78.49,32.18
             78.22,33.77 81.67,32.12 83.85,32.31
             86.04,32.51 81.14,38.67 81.53,38.74
             81.93,38.80 83.39,38.67 82.86,39.53
             82.33,40.39 81.73,40.33 82.39,41.52
             83.06,42.71 85.70,41.45 85.37,41.92
             85.04,42.38 86.76,43.31 87.56,43.38
             88.35,43.44 93.78,40.99 92.39,42.18 Z" />
</svg>
