<?xml version="1.0" encoding="UTF-8" standalone="no"?>
<!DOCTYPE svg PUBLIC "-//W3C//DTD SVG 20010904//EN"
              "http://www.w3.org/TR/2001/REC-SVG-20010904/DTD/svg10.dtd">

<svg xmlns="http://www.w3.org/2000/svg"
     width="0.966667in" height="0.988889in"
     viewBox="0 0 87 89">
  <path id="Imported Path #3"
         
        d="M 86.43,57.96
           C 86.43,57.96 83.80,57.87 79.53,59.86
             79.53,59.86 76.72,62.50 75.35,63.13
             73.99,63.77 73.45,62.50 72.90,63.95
             72.36,65.40 72.36,66.77 74.17,65.40
             74.17,65.40 73.54,67.67 69.90,66.68
             69.90,66.68 61.73,63.59 61.27,67.22
             61.27,67.22 61.18,71.49 65.00,73.94
             65.00,73.94 66.63,75.48 66.63,76.03
             66.63,76.57 64.18,74.49 61.64,74.12
             59.10,73.76 56.55,73.67 56.37,75.03
             56.19,76.39 51.28,69.40 47.38,71.22
             47.38,71.22 46.64,68.44 44.38,67.81
             44.16,69.35 44.14,71.29 44.20,72.21
             44.29,73.58 44.29,77.48 44.29,79.12
             44.29,80.75 45.74,87.56 45.74,88.11
             45.74,88.66 44.38,89.02 44.38,88.66
             44.38,88.29 44.29,83.39 44.02,81.84
             43.74,80.30 43.56,77.67 43.47,76.94
             43.38,76.21 42.75,74.21 42.93,72.67
             43.04,71.72 43.18,69.35 43.28,67.65
             42.78,67.69 41.68,68.14 40.47,70.94
             40.47,70.94 35.39,74.39 33.75,75.30
             32.12,76.21 29.48,79.84 27.94,79.84
             30.21,72.21 29.12,73.76 29.58,72.40
             29.58,72.40 30.03,69.58 28.21,68.85
             28.21,68.85 22.67,68.22 15.04,73.03
             15.04,73.03 18.22,67.67 15.50,66.13
             15.50,66.13 10.50,65.68 9.59,66.31
             9.59,66.31 13.32,61.77 0.06,59.50
             0.06,59.50 8.32,57.86 10.14,53.50
             10.14,53.50 11.50,54.41 16.04,53.32
             16.04,53.32 18.95,53.05 20.04,52.60
             20.04,52.60 20.31,50.87 18.59,49.05
             18.59,49.05 16.77,45.78 15.23,45.24
             13.68,44.69 12.41,43.24 11.32,42.88
             10.23,42.51 9.78,40.15 8.23,38.97
             8.23,38.97 6.14,36.88 4.78,36.43
             4.78,36.43 5.96,35.88 8.69,35.88
             8.69,35.88 14.14,35.07 11.86,28.89
             11.86,28.89 10.05,25.08 8.14,23.35
             8.14,23.35 7.14,23.17 9.78,22.99
             9.78,22.99 12.32,22.62 10.59,16.72
             10.59,16.72 10.87,16.54 11.68,17.08
             12.50,17.63 14.59,16.45 15.50,17.45
             15.50,17.45 16.95,18.26 18.77,20.17
             18.77,20.17 20.04,20.26 20.67,19.35
             20.67,19.35 22.67,16.99 22.85,16.17
             22.85,16.17 23.22,18.99 23.95,20.53
             24.67,22.08 24.76,24.53 25.94,25.35
             27.12,26.17 28.21,26.53 29.21,26.44
             29.21,26.44 29.67,32.52 30.48,33.16
             31.30,33.80 32.39,34.98 33.03,34.89
             33.66,34.79 33.66,29.34 33.30,28.35
             32.94,27.35 31.03,22.26 30.85,20.99
             30.67,19.72 29.67,16.27 30.67,14.99
             30.67,14.99 33.39,18.72 34.39,18.72
             35.39,18.72 36.93,16.08 36.84,10.45
             36.84,10.45 36.66,6.91 36.21,6.37
             35.75,5.82 37.57,7.18 38.39,7.18
             39.20,7.18 42.47,4.64 42.75,-0.08
             42.75,-0.08 43.29,8.82 47.01,5.09
             47.01,5.09 46.92,5.55 46.92,5.55
             46.92,5.55 48.29,12.90 51.46,14.09
             51.46,14.09 54.28,13.45 57.10,11.82
             57.10,11.82 56.10,16.54 55.55,18.45
             55.01,20.35 52.92,26.98 53.28,29.80
             53.64,32.61 53.01,32.89 53.74,33.61
             54.46,33.34 57.82,27.35 58.09,25.98
             58.09,25.98 60.55,22.17 61.09,18.63
             61.09,18.63 63.36,22.99 68.18,20.26
             68.18,20.26 69.08,18.72 69.81,17.90
             70.54,17.08 70.27,17.63 71.72,18.08
             73.17,18.54 75.81,17.18 77.08,16.18
             77.08,16.18 74.90,19.45 76.53,20.81
             78.17,22.17 79.71,21.90 78.98,24.08
             78.26,26.26 77.26,25.72 77.53,27.08
             77.80,28.44 78.53,28.80 78.53,28.80
             78.53,28.80 76.53,30.35 76.71,31.35
             76.89,32.35 77.26,33.25 80.53,34.07
             82.51,34.57 83.22,34.60 83.47,34.54
             82.61,35.19 78.20,38.76 80.26,41.88
             80.26,41.88 72.81,44.33 68.63,50.60
             68.63,50.60 76.17,53.24 78.71,52.60
             78.71,52.60 76.71,56.69 86.43,57.96 Z" />
</svg>
