<?xml version="1.0" encoding="UTF-8" standalone="no"?>
<!DOCTYPE svg PUBLIC "-//W3C//DTD SVG 20010904//EN"
              "http://www.w3.org/TR/2001/REC-SVG-20010904/DTD/svg10.dtd">

<svg xmlns="http://www.w3.org/2000/svg"
     width="0.911111in" height="1in"
     viewBox="0 0 82 90">
  <path id="Imported Path #6"
         
        d="M 81.15,46.17
           C 81.15,46.17 80.71,46.17 79.87,46.34
             79.03,46.51 78.92,46.34 77.47,46.84
             76.02,47.34 75.68,48.13 74.73,48.18
             73.79,48.24 74.23,47.79 73.01,48.46
             71.78,49.13 71.95,49.87 70.72,49.87
             69.49,49.87 68.93,49.77 69.43,50.39
             69.94,51.00 68.60,52.10 67.59,52.26
             66.59,52.43 66.47,53.78 64.91,53.78
             63.35,53.78 63.52,54.03 62.68,54.19
             61.84,54.36 61.73,55.41 59.55,55.41
             57.38,55.41 56.99,56.00 55.03,56.00
             55.03,56.00 54.81,56.00 54.81,56.00
             54.81,56.00 52.69,55.12 52.52,55.62
             52.35,56.12 52.58,56.13 53.25,56.19
             53.92,56.24 54.70,57.00 55.31,57.00
             55.93,57.00 56.37,57.00 58.10,57.00
             59.83,57.00 59.83,55.85 61.28,56.36
             62.73,56.86 62.29,55.94 63.85,56.55
             63.85,56.55 64.41,56.38 65.25,57.16
             66.09,57.94 66.70,57.89 67.76,58.28
             68.82,58.67 68.71,58.78 69.38,59.34
             70.05,59.90 70.55,60.01 71.28,60.85
             72.00,61.69 73.40,63.30 73.40,63.30
             73.40,63.30 72.06,62.24 71.28,62.13
             70.49,62.02 70.10,61.57 69.16,61.35
             68.21,61.13 68.26,60.96 67.26,60.96
             66.25,60.96 65.81,61.01 64.64,60.73
             63.46,60.46 65.36,61.01 63.30,61.18
             61.23,61.35 59.22,61.35 57.88,61.29
             56.54,61.24 54.42,60.46 54.98,60.90
             55.54,61.35 55.37,62.35 54.03,61.96
             54.03,61.96 48.21,60.86 42.61,54.58
             42.40,54.65 42.25,54.69 42.25,54.69
             42.25,54.69 47.16,84.01 47.98,86.17
             48.80,88.33 48.28,87.95 48.36,88.33
             48.43,88.70 47.76,89.15 47.39,89.15
             47.39,89.15 46.10,90.37 46.61,85.91
             46.61,85.91 43.65,70.73 43.42,68.50
             43.20,66.26 41.19,55.21 40.86,54.76
             40.74,54.61 40.45,54.17 40.11,53.66
             40.06,53.79 40.05,53.93 40.08,54.10
             40.19,54.77 39.16,56.37 39.16,56.37
             39.16,56.37 35.74,61.83 32.32,64.59
             32.32,64.59 32.43,64.64 32.43,64.64
             32.43,64.64 31.65,64.62 31.20,65.01
             30.75,65.40 29.83,66.04 29.78,65.48
             29.78,65.48 28.94,64.64 30.56,62.86
             30.56,62.86 29.02,64.31 28.18,65.20
             27.35,66.09 26.62,66.15 26.51,65.82
             26.40,65.48 26.18,65.87 25.79,66.54
             25.79,66.54 24.76,66.82 24.39,66.89
             24.02,66.97 23.27,67.38 23.46,66.86
             23.65,66.34 23.68,66.15 23.72,66.00
             23.76,65.85 23.76,65.85 23.76,65.85
             23.76,65.85 23.27,66.19 22.57,66.78
             21.86,67.38 21.19,67.75 21.19,67.45
             21.19,67.15 20.11,67.82 19.67,68.23
             19.22,68.65 19.15,68.42 19.15,68.20
             19.15,67.97 17.81,68.57 17.47,69.09
             17.14,69.61 15.09,71.28 14.60,71.69
             14.12,72.11 16.24,68.68 17.06,67.64
             17.88,66.60 18.29,65.70 18.85,65.63
             19.41,65.56 19.03,65.18 19.52,64.70
             20.00,64.22 21.53,62.95 21.75,62.84
             21.97,62.73 21.90,62.21 21.97,61.83
             22.05,61.46 24.09,60.31 24.47,60.31
             24.84,60.31 25.92,59.27 26.62,58.97
             26.62,58.97 30.27,58.11 30.57,57.63
             30.86,57.14 30.20,57.30 29.41,57.55
             28.63,57.82 27.29,58.41 26.51,58.52
             25.73,58.63 23.72,59.23 23.72,59.23
             23.72,59.23 23.24,59.19 23.35,58.90
             23.46,58.60 21.15,59.15 20.63,59.38
             20.11,59.60 20.26,59.31 20.37,59.08
             20.48,58.86 17.84,60.23 18.66,59.42
             19.48,58.60 20.04,58.15 19.59,58.34
             19.15,58.52 16.91,59.12 16.35,59.23
             15.80,59.34 16.20,59.08 16.13,58.90
             16.06,58.71 15.13,58.93 14.68,58.78
             14.23,58.64 14.79,57.97 15.05,57.74
             15.31,57.52 14.05,57.70 13.67,57.78
             13.30,57.85 11.85,57.44 11.25,57.52
             10.67,57.59 11.50,56.97 11.69,56.96
             11.52,56.97 10.05,57.04 8.99,57.37
             7.79,57.74 8.39,57.59 6.75,57.67
             5.12,57.74 5.56,57.74 4.37,57.82
             3.18,57.89 1.02,58.04 2.14,57.59
             3.25,57.14 4.15,57.44 5.04,57.14
             5.93,56.85 6.31,56.85 7.05,56.33
             7.79,55.80 8.69,55.36 9.21,55.43
             9.73,55.51 9.95,55.81 10.92,55.51
             11.89,55.21 11.82,54.76 12.63,54.54
             13.45,54.32 14.79,54.47 15.31,54.09
             15.83,53.72 15.31,53.13 19.78,51.71
             24.24,50.30 22.23,51.04 22.98,51.04
             23.72,51.04 26.03,49.56 29.30,51.42
             29.30,51.42 29.60,50.67 23.42,49.78
             21.04,49.48 20.00,47.99 19.70,47.92
             19.70,47.92 20.07,48.14 18.66,47.77
             17.25,47.40 16.06,47.02 16.35,46.73
             16.65,46.43 17.17,46.51 15.68,46.06
             14.19,45.61 13.52,44.87 14.72,44.87
             15.91,44.87 13.82,44.12 12.56,44.12
             11.29,44.12 11.89,43.83 12.04,43.60
             12.19,43.38 9.95,44.05 10.17,43.23
             10.40,42.41 9.43,42.48 10.03,42.34
             10.62,42.19 11.51,42.56 11.59,42.11
             11.67,41.67 12.41,41.15 11.44,41.15
             10.47,41.15 9.28,41.37 8.99,41.07
             8.69,40.77 9.43,40.77 8.69,40.25
             7.94,39.73 7.20,39.58 7.87,39.36
             8.54,39.14 10.17,39.28 9.06,38.99
             7.94,38.69 6.08,38.09 5.64,37.87
             5.64,37.87 4.22,37.09 6.01,37.13
             7.79,37.16 4.04,36.23 3.55,36.12
             3.07,36.01 2.70,36.05 2.66,35.68
             2.62,35.30 2.40,35.27 1.88,35.23
             1.36,35.19 1.84,35.19 1.43,34.60
             1.02,34.00 0.50,33.33 0.24,33.22
             -0.02,33.11 1.66,32.77 2.81,33.67
             2.81,33.67 3.59,33.37 4.41,34.60
             4.41,34.60 4.63,34.11 4.89,34.04
             5.15,33.96 6.34,34.41 6.94,34.93
             7.53,35.45 7.27,34.71 7.35,34.48
             7.42,34.28 9.84,35.11 10.27,35.43
             10.11,35.27 9.69,34.80 10.25,34.71
             10.92,34.60 13.45,34.67 13.86,35.53
             14.27,36.38 13.97,34.97 14.49,35.04
             15.01,35.12 18.25,36.23 18.40,36.64
             18.40,36.64 18.45,35.90 18.45,35.90
             18.45,35.90 20.32,35.84 22.47,37.21
             22.47,37.21 19.48,33.70 20.52,33.40
             21.56,33.11 18.36,31.47 18.36,31.10
             18.36,30.73 16.95,29.46 17.47,29.01
             17.99,28.57 16.87,28.27 16.50,26.63
             16.13,24.99 16.13,23.81 16.13,23.81
             16.13,23.81 16.43,23.58 17.10,24.03
             17.10,24.03 14.65,22.25 14.84,20.07
             14.84,20.07 15.38,20.02 15.93,20.41
             16.49,20.80 16.07,20.41 16.07,20.41
             16.07,20.41 13.70,18.82 14.04,17.53
             14.04,17.53 13.20,16.98 13.12,16.06
             13.03,15.13 12.59,15.13 12.50,15.13
             12.42,15.13 11.69,14.74 11.64,14.16
             11.64,14.16 11.89,13.88 11.53,13.63
             11.16,13.38 10.69,12.62 10.75,12.29
             10.80,11.95 10.75,11.64 12.20,12.73
             12.20,12.73 13.12,12.62 13.70,14.05
             13.70,14.05 13.97,14.46 14.08,13.83
             14.19,13.20 15.39,15.39 15.83,16.10
             16.28,16.81 15.94,15.32 16.06,15.21
             16.17,15.10 18.36,17.85 18.66,18.22
             18.96,18.60 18.89,17.81 19.18,17.52
             19.48,17.22 21.79,18.93 21.71,20.42
             21.64,21.91 22.08,19.45 22.20,18.93
             22.31,18.41 24.99,21.01 25.47,23.02
             25.47,23.02 25.73,21.72 25.73,21.72
             25.73,21.72 28.56,23.06 29.15,26.11
             29.15,26.11 28.86,24.55 29.82,25.74
             30.79,26.93 31.54,27.08 31.83,28.64
             32.13,30.21 32.35,29.31 32.35,29.31
             32.35,29.31 31.68,26.56 31.68,25.67
             31.68,24.77 30.94,24.47 31.39,23.73
             31.83,22.98 31.83,22.98 31.83,22.98
             31.83,22.98 30.87,20.90 31.09,20.01
             31.31,19.12 31.17,19.34 31.31,19.12
             31.46,18.89 31.31,18.30 31.76,17.85
             32.20,17.40 32.50,17.78 32.50,17.78
             32.50,17.78 32.65,17.33 32.65,16.73
             32.65,16.14 32.28,15.69 32.58,15.10
             32.88,14.50 33.10,13.98 33.25,13.53
             33.40,13.09 33.55,12.34 33.55,12.34
             33.55,12.34 34.74,13.24 34.74,13.24
             34.74,13.24 34.10,11.45 34.77,9.72
             35.44,7.99 35.95,10.11 36.00,9.89
             36.06,9.66 35.55,7.10 35.78,6.59
             36.00,6.09 37.06,7.49 36.95,6.76
             36.84,6.03 36.39,4.03 36.50,3.52
             36.61,3.02 37.34,4.25 37.34,3.80
             37.34,3.36 36.33,1.85 37.68,0.79
             37.68,0.79 38.01,1.12 38.40,1.74
             38.79,2.35 38.51,3.30 38.63,3.58
             38.74,3.86 38.79,3.86 39.01,3.75
             39.24,3.64 39.24,4.47 39.07,4.86
             38.90,5.25 39.41,5.25 39.41,5.70
             39.41,6.15 39.24,6.59 39.07,6.82
             38.90,7.04 39.85,6.71 40.02,6.59
             40.19,6.48 40.64,8.60 40.41,10.67
             40.41,10.67 40.06,12.27 41.32,10.22
             41.32,10.22 43.03,10.37 42.07,14.24
             41.43,16.66 42.96,14.02 43.07,13.35
             43.07,13.35 44.30,13.35 44.15,17.25
             44.15,17.25 44.86,18.30 44.86,19.64
             44.86,20.98 45.08,20.90 44.78,22.39
             44.49,23.88 45.08,24.99 45.01,26.04
             44.93,27.08 44.71,27.90 44.26,29.61
             43.82,31.32 44.04,36.83 44.11,36.38
             44.19,35.93 45.01,31.47 45.53,30.20
             46.05,28.94 46.35,26.86 47.02,26.63
             47.69,26.41 48.13,24.84 48.50,24.03
             48.88,23.21 49.10,23.95 49.32,23.06
             49.55,22.17 50.89,20.75 51.03,20.23
             51.18,19.71 51.41,21.42 51.63,20.45
             51.85,19.49 53.49,17.25 53.86,16.81
             54.23,16.36 54.31,18.15 54.68,17.11
             54.68,17.11 55.15,14.63 57.04,13.91
             57.04,13.91 57.55,15.41 57.71,14.52
             57.88,13.63 59.00,12.40 59.56,12.01
             60.11,11.62 60.39,11.73 60.45,11.56
             60.50,11.39 60.73,11.84 61.12,11.17
             61.51,10.50 61.90,10.22 62.29,9.89
             62.68,9.55 63.63,10.28 63.85,9.44
             64.08,8.60 65.70,7.99 65.70,7.99
             65.70,7.99 65.03,9.44 64.97,10.05
             64.91,10.67 65.19,10.22 65.25,10.61
             65.30,11.00 64.08,11.62 63.85,12.01
             63.63,12.40 64.13,12.23 64.13,12.40
             64.13,12.57 62.51,13.57 62.18,13.91
             61.84,14.24 62.73,14.35 62.96,14.30
             63.18,14.24 60.89,15.30 60.73,16.08
             60.56,16.86 61.40,16.47 61.67,16.36
             61.95,16.25 59.78,18.99 60.17,19.38
             60.56,19.77 60.89,19.49 61.12,19.43
             61.34,19.38 61.79,19.94 60.89,21.22
             60.00,22.50 60.89,21.89 61.23,21.94
             61.56,22.00 59.66,22.95 59.55,23.79
             59.44,24.62 61.06,23.79 61.06,23.79
             61.06,23.79 60.95,24.57 60.89,25.01
             60.84,25.46 60.00,26.35 59.72,26.52
             59.44,26.69 59.67,26.63 60.00,27.19
             60.33,27.75 59.61,27.30 58.66,29.15
             57.71,30.99 58.05,31.55 57.26,32.05
             56.48,32.55 55.87,33.72 55.65,34.39
             55.42,35.06 54.31,37.18 53.80,38.08
             53.30,38.97 51.85,39.64 51.74,40.14
             51.63,40.64 51.57,41.15 52.08,40.81
             52.58,40.48 53.75,39.47 54.08,39.19
             54.42,38.91 54.53,37.63 55.93,36.57
             57.32,35.51 59.05,33.95 59.89,33.39
             60.73,32.83 61.62,32.16 62.01,32.10
             62.29,32.06 62.34,31.94 62.34,31.88
             62.34,32.17 62.33,33.65 63.29,31.82
             65.02,31.04 65.69,30.65 66.53,30.49
             66.53,30.49 66.08,31.60 66.53,31.27
             66.98,30.93 67.59,30.49 68.48,30.10
             68.48,30.10 69.43,29.04 70.27,29.54
             70.27,29.54 69.10,31.44 70.83,29.98
             70.83,29.98 72.22,28.70 73.06,28.59
             73.90,28.48 72.78,30.09 73.56,29.20
             74.35,28.31 74.40,28.31 74.96,28.25
             75.52,28.20 75.46,28.03 76.13,27.97
             76.80,27.92 77.75,27.92 77.92,27.81
             78.08,27.69 76.19,30.09 75.63,30.32
             75.07,30.54 74.57,30.37 74.23,30.54
             73.90,30.71 74.73,30.54 74.23,31.16
             73.73,31.77 73.73,32.38 73.29,32.60
             72.84,32.83 73.17,32.83 73.17,32.83
             73.17,32.83 71.00,33.50 70.83,34.00
             70.66,34.50 72.28,33.67 71.72,34.73
             71.16,35.79 70.22,36.85 69.16,37.18
             68.09,37.52 67.15,37.57 67.65,37.96
             68.15,38.35 69.94,37.57 69.21,38.63
             68.48,39.69 67.31,40.42 66.59,40.81
             65.86,41.20 65.08,41.04 64.30,41.48
             63.52,41.93 63.69,41.82 64.02,42.43
             64.36,43.04 62.51,44.83 61.34,44.94
             60.17,45.05 56.93,46.45 56.15,47.06
             55.37,47.68 54.64,48.40 55.03,48.29
             55.42,48.18 55.31,47.96 56.37,47.68
             57.43,47.40 58.49,46.34 59.61,46.23
             60.73,46.12 62.96,44.89 63.46,44.61
             63.97,44.33 64.91,44.44 66.03,44.38
             67.15,44.33 68.77,43.83 69.38,44.11
             69.99,44.38 69.77,44.83 70.05,44.83
             70.33,44.83 71.00,44.61 71.78,44.72
             72.56,44.83 74.07,44.50 74.01,44.89
             73.96,45.28 73.68,45.28 74.90,45.28
             74.90,45.28 77.64,44.39 78.92,45.11
             78.92,45.11 79.81,44.83 80.48,45.50
             81.16,46.17 81.15,46.17 81.15,46.17 Z" />
</svg>
