<?xml version="1.0" encoding="UTF-8" standalone="no"?>
<!DOCTYPE svg PUBLIC "-//W3C//DTD SVG 20010904//EN"
              "http://www.w3.org/TR/2001/REC-SVG-20010904/DTD/svg10.dtd">

<svg xmlns="http://www.w3.org/2000/svg"
     width="0.577778in" height="1.01111in"
     viewBox="0 0 52 91">
  <path id="Imported Path #17"
         
        d="M 48.13,49.59
           C 48.13,49.59 48.76,49.74 48.76,49.74
             48.76,49.74 46.38,54.71 46.38,54.71
             46.38,54.71 46.12,54.52 46.12,54.66
             46.12,54.81 46.23,55.76 46.19,55.91
             46.16,56.05 43.18,63.61 40.39,65.38
             37.60,67.14 35.66,70.92 34.43,72.83
             33.20,74.75 31.12,77.76 31.12,78.62
             31.12,79.48 31.56,85.22 32.12,86.56
             32.12,86.56 32.31,88.52 33.46,89.29
             33.46,89.29 32.33,89.12 31.88,89.41
             31.28,89.80 30.78,90.69 30.78,90.69
             30.78,90.69 29.10,78.70 29.10,78.70
             29.10,78.70 22.75,71.56 22.75,71.56
             22.75,71.56 13.91,66.46 12.42,64.55
             12.42,64.55 11.13,63.66 11.13,63.66
             11.13,63.66 11.21,63.08 11.21,63.08
             11.21,63.08 7.63,59.64 7.11,59.54
             7.11,59.54 7.63,58.39 7.63,58.39
             7.63,58.39 4.51,54.57 4.66,53.61
             4.66,53.61 5.03,53.33 5.03,53.33
             5.03,53.33 2.65,48.45 2.65,48.45
             2.65,48.45 3.17,48.16 3.17,48.16
             3.17,48.16 1.61,43.95 1.61,43.95
             1.61,43.95 2.28,43.57 2.28,43.57
             2.28,43.57 0.86,39.36 0.86,39.36
             0.86,39.36 1.68,39.07 1.68,39.07
             1.68,39.07 1.31,34.77 1.31,34.77
             1.31,34.77 2.13,34.96 2.13,34.96
             2.13,34.96 1.60,32.09 2.20,30.18
             2.20,30.18 3.10,30.66 3.10,30.66
             3.10,30.66 3.02,27.89 3.17,27.12
             3.17,27.12 4.21,26.45 4.21,26.45
             4.21,26.45 5.18,23.58 5.18,23.58
             5.18,23.58 6.52,23.29 6.52,23.29
             6.52,23.29 6.96,20.36 6.96,20.36
             6.96,20.36 7.81,19.53 8.50,20.11
             8.50,20.11 8.85,16.60 8.85,16.60
             8.85,16.60 10.59,17.04 10.59,17.04
             10.59,17.04 10.44,14.43 11.43,13.09
             11.43,13.09 12.82,13.66 12.82,13.66
             12.82,13.66 13.57,11.69 14.16,10.73
             14.16,10.73 15.15,10.73 15.40,10.79
             15.65,10.86 15.75,9.90 15.90,9.58
             16.05,9.26 16.74,7.61 16.74,7.61
             16.74,7.61 17.93,8.43 18.08,8.24
             18.23,8.05 19.47,6.20 18.23,0.72
             18.23,0.72 19.17,1.17 19.32,1.42
             19.47,1.68 21.06,4.16 22.69,5.18
             23.79,5.63 23.99,4.61 23.99,4.61
             23.99,4.61 26.47,6.12 27.10,7.08
             27.10,7.08 27.99,5.79 28.22,5.69
             28.44,5.60 29.15,6.55 29.41,6.79
             29.67,7.03 30.19,6.03 30.22,6.17
             30.26,6.32 31.49,8.09 31.49,8.52
             31.49,8.52 32.68,7.03 32.72,7.18
             32.76,7.32 34.39,9.71 34.43,10.24
             34.47,10.76 35.36,9.23 35.36,9.23
             35.36,9.23 36.40,10.57 36.33,10.81
             36.26,11.05 37.11,10.62 37.11,10.62
             37.11,10.62 37.52,11.86 37.78,12.58
             38.04,13.30 39.53,11.91 39.53,11.91
             39.53,11.91 41.35,14.92 41.35,15.21
             41.35,15.50 43.21,14.73 43.21,14.73
             43.21,14.73 44.18,17.46 44.18,19.13
             44.18,19.13 45.34,18.18 45.52,18.51
             45.71,18.85 46.64,22.29 46.64,22.29
             46.64,22.29 47.83,21.95 47.83,21.95
             47.83,21.95 48.20,25.44 48.20,25.44
             48.20,25.44 49.13,25.25 49.13,25.25
             49.13,25.25 48.91,28.55 48.91,28.55
             48.91,28.55 49.80,28.36 49.80,28.36
             49.80,28.36 49.88,31.47 49.88,31.47
             49.88,31.47 51.03,31.61 51.03,31.61
             51.03,31.61 50.40,37.45 50.40,37.45
             50.40,37.45 51.51,37.88 51.51,37.88
             51.51,37.88 49.47,43.90 49.47,43.90
             49.47,43.90 49.43,44.10 49.43,44.10
             49.43,44.10 50.03,44.24 50.03,44.24
             50.03,44.24 50.36,46.73 48.13,49.59 Z" />
</svg>
