<?xml version="1.0" encoding="UTF-8" standalone="no"?>
<!DOCTYPE svg PUBLIC "-//W3C//DTD SVG 20010904//EN"
              "http://www.w3.org/TR/2001/REC-SVG-20010904/DTD/svg10.dtd">

<svg xmlns="http://www.w3.org/2000/svg"
     width="0.666667in" height="0.988889in"
     viewBox="0 0 60 89">
  <path id="Selection"
         
        d="M 38.00,15.00
           C 38.00,15.00 43.00,14.00 43.00,14.00
             41.84,20.40 39.71,21.38 41.00,28.00
             41.00,28.00 55.00,19.00 55.00,19.00
             52.64,34.29 49.50,33.77 44.00,45.00
             44.00,45.00 59.00,46.00 59.00,46.00
             59.00,46.00 48.00,50.00 48.00,50.00
             48.00,50.00 48.90,52.32 48.90,52.32
             48.90,52.32 39.00,64.00 39.00,64.00
             39.00,64.00 46.00,65.00 46.00,65.00
             40.96,74.85 32.08,76.81 22.00,75.00
             20.73,82.03 21.68,86.31 14.00,89.00
             16.19,85.71 19.67,83.62 18.67,79.04
             17.78,74.98 14.17,74.40 10.21,69.96
             6.48,65.77 5.99,62.26 5.00,57.00
             5.00,57.00 14.00,60.00 14.00,60.00
             14.00,60.00 1.00,39.00 1.00,39.00
             1.00,39.00 6.00,38.00 6.00,38.00
             6.00,38.00 3.00,32.00 3.00,32.00
             3.00,32.00 19.00,40.00 19.00,40.00
             18.25,31.70 13.42,23.01 17.00,14.00
             18.18,15.92 20.49,19.94 22.37,21.27
             23.49,21.74 24.63,21.92 25.87,21.27
             30.54,19.71 28.88,11.60 28.00,8.00
             28.00,8.00 32.00,10.00 32.00,10.00
             32.00,10.00 34.00,1.00 34.00,1.00
             37.88,3.70 37.41,10.52 38.00,15.00 Z" />
</svg>
