<?xml version="1.0" encoding="UTF-8" standalone="no"?>
<!DOCTYPE svg PUBLIC "-//W3C//DTD SVG 20010904//EN"
              "http://www.w3.org/TR/2001/REC-SVG-20010904/DTD/svg10.dtd">

<svg xmlns="http://www.w3.org/2000/svg"
     width="0.677778in" height="0.977778in"
     viewBox="0 0 61 88">
  <path id="Imported Path #1"
         
        d="M 59.24,56.36
           C 59.24,56.36 58.50,59.84 58.93,62.03
             58.93,62.03 58.90,66.40 54.52,71.98
             54.52,71.98 53.72,73.92 52.87,75.03
             52.01,76.13 51.41,77.48 50.01,78.37
             48.62,79.26 45.65,80.67 44.42,80.86
             43.18,81.06 41.39,81.62 39.29,81.35
             37.18,81.08 33.68,81.13 29.56,74.32
             29.56,74.32 28.23,73.58 27.32,74.03
             26.40,74.49 21.50,83.20 18.41,87.30
             18.41,87.30 17.34,88.18 16.46,86.92
             16.46,86.92 24.91,77.36 24.54,73.60
             24.54,73.60 20.75,72.73 18.17,74.30
             18.17,74.30 4.21,79.36 1.48,60.56
             1.48,60.56 0.66,58.08 0.88,54.87
             1.06,52.35 0.98,50.86 1.36,49.60
             1.46,49.26 1.59,48.94 1.78,48.61
             1.78,48.61 3.35,46.21 3.87,44.92
             4.39,43.63 5.41,41.83 6.40,40.82
             7.38,39.80 7.92,38.95 9.17,38.11
             10.42,37.27 14.19,34.54 15.66,32.02
             15.66,32.02 20.57,27.09 25.89,23.42
             25.89,23.42 40.41,14.22 43.12,0.88
             43.12,0.88 44.19,0.87 44.51,2.84
             44.83,4.80 49.74,13.21 51.90,18.62
             51.90,18.62 54.53,20.38 55.71,25.60
             55.71,25.60 55.69,25.76 55.69,25.76
             55.69,25.76 58.56,30.83 58.95,32.21
             59.35,33.60 60.81,40.35 60.54,42.07
             60.27,43.80 61.80,46.70 59.24,56.36 Z" />
</svg>
