<?xml version="1.0" encoding="UTF-8" standalone="no"?>
<!DOCTYPE svg PUBLIC "-//W3C//DTD SVG 20010904//EN"
              "http://www.w3.org/TR/2001/REC-SVG-20010904/DTD/svg10.dtd">

<svg xmlns="http://www.w3.org/2000/svg"
     width="0.988889in" height="1in"
     viewBox="0 0 89 90">
  <path id="Imported Path #19"
         
        d="M 47.23,78.74
           C 47.82,81.71 48.84,79.50 48.84,79.50
             48.84,79.50 51.22,80.86 51.57,81.29
             51.91,81.71 53.27,82.14 54.46,82.82
             55.65,83.50 58.45,84.27 59.31,83.67
             60.16,83.07 59.56,80.78 59.99,79.84
             60.41,78.91 60.92,79.33 61.94,79.33
             62.97,79.33 66.71,82.14 67.64,82.40
             68.58,82.65 73.00,84.61 73.60,84.35
             74.19,84.10 72.49,81.72 73.34,81.12
             74.19,80.52 78.02,81.21 77.76,80.78
             77.51,80.35 76.74,79.42 78.53,79.59
             80.32,79.76 80.23,79.59 79.55,78.74
             78.87,77.89 79.47,77.38 80.15,77.21
             80.83,77.04 83.80,73.72 83.80,72.53
             83.80,71.34 80.66,70.74 78.45,69.89
             76.23,69.04 69.85,67.51 69.09,66.83
             68.32,66.15 70.71,65.55 71.81,65.72
             72.92,65.89 78.45,68.02 79.30,67.43
             80.15,66.83 78.87,66.83 78.87,66.83
             78.87,66.83 90.10,65.55 87.97,62.24
             85.84,58.92 79.38,57.30 79.72,56.54
             80.06,55.77 86.70,54.16 88.14,52.37
             89.59,50.58 83.89,50.07 83.12,48.97
             82.36,47.86 87.89,46.16 87.89,46.16
             87.89,43.86 85.76,43.01 85.76,43.01
             85.76,43.01 85.42,43.44 86.52,42.84
             87.63,42.25 88.99,40.89 88.40,39.61
             87.80,38.34 86.10,38.42 86.70,37.91
             87.29,37.40 88.23,36.21 88.65,34.68
             89.08,33.15 86.70,33.66 86.10,32.72
             85.50,31.79 86.44,25.92 85.33,25.41
             84.23,24.90 76.57,26.77 75.81,26.94
             75.04,27.11 74.62,26.94 74.02,26.34
             73.43,25.75 73.17,27.45 71.22,29.15
             69.26,30.85 69.26,30.00 68.32,30.17
             67.39,30.34 64.32,34.77 64.32,34.77
             63.39,38.08 59.82,40.89 59.31,40.04
             58.79,39.19 59.65,36.72 60.33,35.53
             61.01,34.34 64.07,31.53 64.83,30.85
             65.60,30.17 65.26,29.83 65.26,29.83
             69.43,26.34 68.58,26.60 67.98,25.92
             67.38,25.24 67.81,25.24 67.98,24.64
             68.15,24.05 70.45,22.69 70.11,22.69
             69.77,22.69 69.17,22.43 69.17,21.24
             69.17,20.05 70.45,15.29 70.45,15.29
             69.09,13.41 65.43,14.78 65.43,14.78
             62.54,14.95 59.56,19.28 59.56,18.18
             59.56,17.07 59.65,11.80 59.65,11.80
             56.07,9.67 53.18,13.25 53.18,13.25
             53.18,13.25 53.01,13.58 53.09,12.82
             53.18,12.05 53.94,8.74 51.48,9.93
             49.02,11.12 47.57,9.42 47.57,9.42
             47.57,9.42 47.48,4.99 47.48,4.99
             47.48,4.99 45.18,4.82 45.18,4.82
             45.18,4.82 40.77,-0.03 40.77,-0.03
             40.77,-0.03 38.89,3.12 38.89,3.12
             36.85,6.27 37.02,4.40 35.49,3.80
             33.96,3.21 34.38,4.91 34.13,6.52
             33.87,8.14 33.11,5.42 32.09,6.01
             31.07,6.61 31.15,9.41 31.15,9.41
             30.56,9.24 29.03,7.97 28.43,9.67
             27.84,11.37 28.35,12.90 26.90,12.56
             25.45,12.22 23.75,11.12 23.07,12.22
             22.39,13.33 23.84,15.45 23.50,17.24
             23.16,19.03 22.90,19.71 22.90,19.71
             13.89,15.03 10.74,15.62 10.23,16.22
             9.72,16.82 12.86,24.81 12.86,24.81
             12.86,24.81 12.01,25.32 12.01,25.32
             10.48,25.92 15.50,30.51 15.50,30.51
             18.82,36.21 21.03,35.95 21.03,35.95
             27.75,43.10 24.52,42.84 24.52,42.84
             22.56,40.38 16.95,34.17 16.95,34.17
             16.78,32.47 15.50,31.19 15.50,31.87
             15.50,32.55 13.63,32.21 13.38,30.77
             13.12,29.32 11.42,26.34 10.48,26.34
             9.55,26.34 9.29,26.85 9.29,26.85
             5.72,21.58 1.64,22.26 1.64,22.26
             0.02,25.83 2.66,30.60 2.66,30.60
             2.66,30.60 2.06,30.68 1.55,30.85
             1.04,31.02 4.78,33.15 2.14,33.06
             2.03,33.06 1.92,33.07 1.81,33.09
             1.00,33.24 0.28,33.83 0.28,33.83
             -1.09,36.12 2.74,39.36 2.74,39.36
             0.10,39.70 0.96,41.31 0.96,41.31
             1.13,43.36 5.80,46.59 5.80,46.59
             5.29,46.59 5.21,46.16 3.76,47.69
             2.91,49.90 10.23,53.30 9.21,53.56
             8.19,53.82 4.44,56.79 4.87,57.98
             5.29,59.17 7.42,59.51 9.89,61.47
             12.35,63.43 13.03,62.83 16.69,62.92
             20.35,63.00 20.18,63.09 20.18,64.62
             20.18,66.15 15.50,66.49 14.40,67.42
             13.29,68.36 15.41,67.93 13.63,68.53
             11.84,69.12 7.84,72.70 7.33,75.59
             6.82,78.48 10.14,76.87 10.23,78.57
             10.31,80.27 13.63,80.52 13.63,80.52
             13.63,80.52 13.80,80.18 13.63,80.86
             13.46,81.54 15.07,83.67 16.86,83.84
             18.65,84.01 18.90,83.76 19.24,84.78
             19.58,85.80 19.16,86.22 20.26,87.41
             21.37,88.60 22.39,86.99 23.84,86.31
             25.28,85.63 25.03,85.37 25.79,85.03
             26.56,84.69 28.01,82.99 28.26,83.84
             28.52,84.70 28.60,86.82 29.02,88.35
             29.45,89.88 30.64,89.12 33.62,88.10
             36.59,87.08 36.17,85.12 36.77,85.80
             37.36,86.48 37.27,86.65 38.13,85.72
             38.98,84.78 38.98,80.27 38.98,80.27
             40.59,82.40 41.40,79.59 41.40,79.59
             38.47,64.28 42.68,62.88 42.68,62.88
             46.04,62.67 46.63,75.76 47.23,78.74 Z" />
</svg>
