<?xml version="1.0" encoding="UTF-8" standalone="no"?>
<!DOCTYPE svg PUBLIC "-//W3C//DTD SVG 20010904//EN"
              "http://www.w3.org/TR/2001/REC-SVG-20010904/DTD/svg10.dtd">

<svg xmlns="http://www.w3.org/2000/svg"
     width="0.944444in" height="0.988889in"
     viewBox="0 0 85 89">
  <path id="Imported Path #9"
         
        d="M 84.95,49.79
           C 84.83,50.68 83.71,58.34 81.77,61.17
             79.70,64.17 80.27,68.30 72.56,71.12
             72.56,71.12 71.98,71.17 70.87,73.38
             69.56,76.01 67.87,77.32 63.92,78.64
             63.92,78.64 59.23,83.33 51.90,74.13
             51.90,74.13 48.52,72.44 51.90,78.07
             51.90,78.07 56.03,85.40 53.59,87.28
             51.15,89.16 37.81,89.34 34.62,85.21
             34.62,85.21 34.81,83.52 32.74,85.02
             30.77,86.46 22.64,80.35 26.31,64.45
             23.09,68.12 18.42,72.85 18.42,72.85
             15.86,74.28 3.52,87.46 3.52,87.46
             3.73,85.74 1.18,81.45 1.18,81.45
             3.73,82.30 14.38,71.70 16.29,69.98
             17.37,69.00 20.79,65.35 23.54,62.17
             22.72,62.40 21.67,62.68 20.34,63.04
             15.46,64.36 11.33,65.11 9.82,63.61
             9.82,63.61 -0.89,61.54 1.18,38.43
             1.18,38.43 2.87,31.30 1.37,29.04
             1.37,29.04 11.51,24.91 16.21,35.80
             16.21,35.80 17.34,39.00 17.34,33.74
             17.34,33.74 15.08,29.42 14.89,27.91
             14.70,26.41 13.20,20.02 14.33,17.21
             15.46,14.39 19.59,7.25 28.98,0.68
             28.98,0.68 37.62,9.88 39.32,13.26
             41.00,16.64 41.38,21.72 41.38,23.97
             41.38,26.22 42.88,28.10 43.82,26.79
             44.76,25.47 42.88,16.08 43.82,14.39
             44.76,12.70 48.33,8.19 49.27,8.19
             50.21,8.19 53.40,12.32 54.91,10.44
             56.41,8.57 54.72,5.18 60.73,3.49
             66.74,1.80 77.26,4.06 77.26,4.06
             77.26,4.06 78.58,7.25 79.33,8.57
             80.08,9.88 78.20,14.20 79.52,16.27
             80.83,18.33 81.96,20.21 79.33,21.53
             76.70,22.84 76.13,23.97 76.51,25.85
             76.89,27.73 80.27,28.10 78.39,31.67
             78.39,31.67 78.58,35.05 73.31,40.13
             73.31,40.13 59.04,41.44 59.04,43.69
             59.04,45.95 59.04,46.70 61.86,46.32
             64.68,45.95 65.24,42.00 75.38,46.51
             83.69,50.21 84.82,49.99 84.95,49.79 Z" />
</svg>
