<?xml version="1.0" encoding="UTF-8" standalone="no"?>
<!DOCTYPE svg PUBLIC "-//W3C//DTD SVG 20010904//EN"
              "http://www.w3.org/TR/2001/REC-SVG-20010904/DTD/svg10.dtd">

<svg xmlns="http://www.w3.org/2000/svg"
     width="1in" height="1in"
     viewBox="0 0 90 90">
  <path id="Imported Path #16"
         
        d="M 88.66,85.26
           C 87.71,83.73 72.98,72.29 69.20,69.58
             65.43,66.87 68.62,68.52 67.67,66.04
             66.73,63.57 67.79,63.09 68.26,61.33
             68.73,59.56 73.33,50.25 75.57,48.01
             77.81,45.77 76.04,44.94 75.81,40.23
             75.57,35.51 76.04,33.51 75.57,30.44
             75.10,27.38 68.85,36.34 67.44,37.87
             66.02,39.40 64.61,45.41 61.54,45.65
             58.48,45.88 62.13,43.88 63.31,39.28
             64.49,34.68 65.08,33.03 65.55,27.38
             66.02,21.72 63.08,19.24 61.19,12.76
             59.30,6.28 55.77,7.45 54.47,7.45
             53.17,7.45 53.05,10.99 51.99,13.00
             50.93,15.00 48.93,17.83 49.05,17.12
             49.16,16.41 45.63,13.11 45.16,10.52
             44.69,7.93 39.50,2.74 37.97,1.09
             36.43,-0.56 37.49,4.03 38.09,7.69
             38.67,11.34 35.96,13.58 35.02,10.17
             34.08,6.75 29.83,2.86 29.60,3.92
             29.36,4.98 29.01,7.45 27.12,5.92
             25.23,4.39 25.12,5.45 20.52,4.98
             15.92,4.51 14.86,2.86 12.03,0.73
             9.20,-1.39 9.67,2.62 10.97,4.98
             12.27,7.34 11.91,10.99 11.91,14.53
             11.91,18.06 12.39,19.12 12.03,19.48
             11.68,19.83 9.91,18.89 8.97,19.48
             8.02,20.07 11.21,22.90 13.09,25.14
             14.98,27.38 12.97,27.61 11.80,27.49
             10.62,27.38 7.20,28.91 6.96,29.73
             6.73,30.56 7.55,31.74 8.97,34.10
             10.38,36.45 17.81,39.52 17.10,39.52
             16.39,39.52 14.51,39.40 11.56,39.16
             8.61,38.93 10.26,41.99 8.26,42.46
             6.26,42.94 0.72,42.82 0.72,42.82
             0.72,42.82 10.03,52.01 10.03,52.01
             10.03,52.01 15.45,53.55 15.45,53.55
             15.45,53.55 17.81,57.79 17.81,57.79
             17.81,57.79 26.77,58.14 28.06,58.14
             29.36,58.14 30.54,58.73 32.19,58.26
             33.84,57.79 37.73,58.50 37.49,58.97
             37.26,59.44 34.55,61.56 34.55,61.56
             32.78,62.62 27.47,65.33 24.88,66.75
             22.29,68.16 16.28,73.59 15.57,74.06
             14.86,74.53 27.00,74.29 29.83,73.94
             32.66,73.59 35.14,71.94 35.37,73.23
             35.61,74.53 39.73,74.65 39.73,74.65
             39.73,74.65 44.80,72.76 44.80,73.23
             44.80,73.70 52.23,74.77 52.70,74.41
             53.17,74.06 57.42,70.05 58.24,68.99
             59.07,67.93 63.31,67.22 65.43,68.28
             67.55,69.34 71.21,74.53 74.04,78.42
             76.87,82.31 79.70,83.02 81.11,84.20
             82.53,85.37 85.47,88.09 85.94,88.44
             86.41,88.80 88.89,89.62 88.89,89.62
             88.89,89.62 89.60,86.79 88.66,85.26 Z" />
</svg>
