<?xml version="1.0" encoding="UTF-8" standalone="no"?>
<!DOCTYPE svg PUBLIC "-//W3C//DTD SVG 20010904//EN"
              "http://www.w3.org/TR/2001/REC-SVG-20010904/DTD/svg10.dtd">

<svg xmlns="http://www.w3.org/2000/svg"
     viewBox="0 0 1171 1516">
  <path id="Selection #2"
        d="M 572.00,0.00
           C 572.00,0.00 574.00,23.00 574.00,23.00
             574.00,23.00 575.00,40.00 575.00,40.00
             575.00,40.00 575.00,59.00 575.00,59.00
             575.00,59.00 576.00,74.00 576.00,74.00
             576.00,74.00 576.00,123.00 576.00,123.00
             576.00,123.00 575.00,140.00 575.00,140.00
             575.00,140.00 575.00,191.00 575.00,191.00
             575.00,191.00 574.00,207.00 574.00,207.00
             574.00,207.00 574.00,220.00 574.00,220.00
             574.00,220.00 575.00,235.00 575.00,235.00
             575.00,235.00 575.00,254.00 575.00,254.00
             575.00,254.00 576.00,275.00 576.00,275.00
             591.68,275.00 596.72,276.15 610.00,285.00
             610.45,275.34 615.61,262.78 619.71,254.00
             633.07,225.37 656.69,199.73 688.00,191.16
             712.54,184.44 738.18,187.89 763.00,183.39
             783.59,179.65 788.39,173.02 799.00,170.00
             795.64,177.88 789.29,182.48 782.00,186.56
             765.76,195.65 746.07,196.42 728.00,198.17
             715.58,199.37 702.98,200.23 691.00,204.03
             664.10,212.55 642.09,232.76 628.28,257.00
             625.02,262.73 615.87,279.96 615.68,286.00
             615.54,290.37 619.60,295.24 621.77,299.00
             625.36,305.22 627.72,312.07 634.00,316.30
             639.13,319.75 647.85,320.05 654.00,321.42
             662.55,323.34 668.90,326.33 676.00,331.43
             695.23,345.24 707.96,368.17 708.00,392.00
             708.00,392.00 707.00,411.00 707.00,411.00
             727.21,405.87 733.07,406.50 752.96,404.86
             752.96,404.86 775.00,402.32 775.00,402.32
             775.00,402.32 811.00,398.72 811.00,398.72
             811.00,398.72 852.00,392.25 852.00,392.25
             852.00,392.25 875.00,388.60 875.00,388.60
             875.00,388.60 930.00,374.98 930.00,374.98
             930.00,374.98 959.00,365.42 959.00,365.42
             966.67,364.36 971.41,373.33 969.57,379.98
             967.61,387.06 956.23,387.88 950.00,389.58
             950.00,389.58 890.00,403.37 890.00,403.37
             890.00,403.37 797.00,425.27 797.00,425.27
             786.91,427.83 767.47,430.39 759.00,435.21
             747.75,441.61 742.50,451.57 734.56,461.00
             728.05,468.73 724.37,470.82 717.00,476.92
             717.00,476.92 681.00,504.93 681.00,504.93
             678.29,507.38 671.41,512.12 671.73,516.00
             671.93,518.32 674.80,521.20 675.88,524.00
             677.44,528.06 675.33,529.67 677.90,534.00
             679.78,537.15 693.72,551.00 697.00,553.74
             697.00,553.74 703.91,559.13 703.91,559.13
             703.91,559.13 710.00,566.00 710.00,566.00
             713.86,561.05 719.07,557.40 724.00,553.58
             734.56,545.38 745.55,538.04 757.00,531.18
             772.50,521.90 791.57,511.56 809.01,506.69
             853.59,494.25 903.45,501.79 949.00,505.45
             988.27,508.59 1027.62,509.41 1067.00,509.00
             1086.34,508.79 1114.27,506.03 1133.00,501.37
             1133.00,501.37 1152.00,495.49 1152.00,495.49
             1154.74,494.58 1158.14,493.07 1160.96,494.28
             1165.99,496.43 1174.99,511.88 1168.69,518.77
             1164.90,522.91 1157.22,522.99 1152.00,523.00
             1152.00,523.00 1143.00,523.00 1143.00,523.00
             1143.00,523.00 1118.00,524.00 1118.00,524.00
             1118.00,524.00 1093.00,524.00 1093.00,524.00
             1093.00,524.00 1062.00,525.00 1062.00,525.00
             1062.00,525.00 1012.00,526.00 1012.00,526.00
             1012.00,526.00 888.00,528.00 888.00,528.00
             878.83,528.01 865.20,528.97 856.58,531.85
             843.80,536.12 832.58,543.88 821.00,550.50
             821.00,550.50 761.00,587.60 761.00,587.60
             753.36,592.22 748.50,596.21 740.00,600.00
             740.00,600.00 779.00,624.31 779.00,624.31
             779.00,624.31 838.00,659.50 838.00,659.50
             838.00,659.50 996.00,754.55 996.00,754.55
             1035.15,778.04 1073.30,798.11 1104.00,833.01
             1122.86,854.45 1134.73,876.89 1145.46,903.00
             1147.68,908.39 1155.12,924.41 1155.79,929.00
             1158.95,950.53 1148.22,969.45 1129.00,979.20
             1122.68,982.40 1119.15,983.91 1112.00,984.00
             1112.00,984.00 1107.00,984.00 1107.00,984.00
             1096.89,983.90 1086.78,980.79 1077.00,978.37
             1077.00,978.37 1029.00,966.37 1029.00,966.37
             1029.00,966.37 952.28,947.02 952.28,947.02
             922.47,940.02 888.81,931.45 864.00,912.76
             834.77,890.75 812.04,861.42 788.51,833.72
             788.51,833.72 756.28,797.00 756.28,797.00
             756.28,797.00 711.51,745.17 711.51,745.17
             711.51,745.17 670.00,697.00 670.00,697.00
             664.36,708.55 653.73,721.36 641.00,725.00
             641.00,725.00 659.52,762.00 659.52,762.00
             668.67,781.19 679.72,810.45 685.12,831.00
             685.12,831.00 696.20,880.00 696.20,880.00
             697.20,885.26 698.32,899.17 700.85,902.87
             702.60,905.43 705.57,906.58 707.99,908.37
             707.99,908.37 714.28,913.47 714.28,913.47
             714.28,913.47 731.00,922.02 731.00,922.02
             742.98,929.15 761.17,944.86 770.96,955.00
             799.24,984.28 822.71,1032.29 838.01,1070.00
             848.18,1095.06 856.13,1106.61 856.00,1135.00
             856.00,1135.00 855.00,1166.00 855.00,1166.00
             855.10,1187.15 861.66,1227.16 864.47,1249.83
             864.47,1249.83 868.74,1290.96 868.74,1290.96
             868.74,1290.96 870.09,1323.00 870.09,1323.00
             870.09,1323.00 872.08,1361.00 872.08,1361.00
             872.08,1361.00 873.00,1374.00 873.00,1374.00
             873.16,1396.59 876.84,1435.53 883.00,1457.00
             883.00,1457.00 891.45,1483.00 891.45,1483.00
             895.03,1491.97 899.55,1499.12 898.00,1509.00
             898.00,1509.00 879.00,1509.00 879.00,1509.00
             879.00,1509.00 867.72,1447.00 867.72,1447.00
             867.72,1447.00 857.73,1386.00 857.73,1386.00
             857.73,1386.00 848.17,1314.00 848.17,1314.00
             848.17,1314.00 844.84,1272.01 844.84,1272.01
             844.84,1272.01 841.89,1221.00 841.89,1221.00
             841.89,1221.00 841.89,1189.00 841.89,1189.00
             841.89,1189.00 841.89,1141.00 841.89,1141.00
             841.89,1141.00 841.89,1121.00 841.89,1121.00
             832.49,1122.49 828.92,1118.26 824.94,1110.00
             821.38,1102.58 819.52,1092.06 817.10,1083.99
             817.10,1083.99 811.83,1068.00 811.83,1068.00
             811.83,1068.00 801.94,1045.00 801.94,1045.00
             787.74,1015.39 772.03,991.76 745.00,972.16
             745.00,972.16 727.00,960.89 727.00,960.89
             727.00,960.89 709.15,953.45 709.15,953.45
             704.51,950.68 707.82,948.28 702.00,945.00
             702.00,945.00 702.00,963.00 702.00,963.00
             702.00,963.00 701.00,979.00 701.00,979.00
             700.98,994.52 699.99,1009.63 697.73,1025.00
             688.73,1086.12 665.37,1145.46 633.19,1198.00
             622.35,1215.70 609.57,1233.09 596.25,1249.00
             593.40,1252.39 584.34,1264.39 580.00,1263.97
             576.38,1263.62 567.55,1252.16 565.00,1249.00
             551.92,1232.81 540.72,1217.42 529.34,1200.00
             493.73,1145.46 470.59,1080.57 462.85,1016.00
             462.85,1016.00 460.04,996.00 460.04,996.00
             460.04,996.00 460.04,986.00 460.04,986.00
             460.04,986.00 459.00,974.00 459.00,974.00
             459.00,974.00 459.00,946.00 459.00,946.00
             459.00,946.00 456.00,946.00 456.00,946.00
             456.00,946.00 457.00,956.00 457.00,956.00
             457.00,956.00 455.00,957.00 455.00,957.00
             455.00,957.00 455.00,958.00 455.00,958.00
             451.09,958.57 447.50,960.98 444.00,962.76
             435.85,966.90 428.01,971.86 421.01,977.75
             395.59,999.16 373.16,1033.03 363.71,1065.00
             363.71,1065.00 353.86,1096.00 353.86,1096.00
             352.07,1101.77 350.80,1108.74 348.03,1114.00
             343.93,1121.78 340.48,1123.92 332.00,1124.00
             332.00,1124.00 333.11,1151.00 333.11,1151.00
             333.11,1151.00 333.11,1178.00 333.11,1178.00
             333.11,1178.00 333.11,1244.00 333.11,1244.00
             333.11,1244.00 331.09,1280.00 331.09,1280.00
             331.09,1280.00 328.83,1317.00 328.83,1317.00
             328.83,1317.00 324.34,1359.09 324.34,1359.09
             324.34,1359.09 317.44,1412.00 317.44,1412.00
             317.44,1412.00 315.36,1426.91 315.36,1426.91
             315.36,1426.91 313.56,1440.00 313.56,1440.00
             313.56,1440.00 304.42,1495.00 304.42,1495.00
             303.80,1499.04 302.57,1512.65 299.52,1514.83
             297.81,1516.04 295.01,1515.97 293.00,1516.00
             293.00,1516.00 289.00,1516.00 289.00,1516.00
             287.13,1515.99 284.11,1516.14 282.56,1514.98
             277.84,1511.42 284.61,1496.51 286.40,1492.00
             296.58,1466.33 299.01,1449.98 302.15,1423.00
             302.15,1423.00 304.19,1397.59 304.19,1397.59
             304.19,1397.59 305.18,1382.00 305.18,1382.00
             305.18,1382.00 305.18,1357.82 305.18,1357.82
             305.18,1357.82 306.00,1346.00 306.00,1346.00
             306.04,1319.64 307.07,1293.27 309.23,1267.00
             309.23,1267.00 312.02,1245.17 312.02,1245.17
             315.25,1218.98 318.73,1192.41 319.00,1166.00
             319.00,1166.00 318.00,1136.00 318.00,1136.00
             317.96,1107.90 323.50,1101.94 332.75,1077.00
             332.75,1077.00 344.96,1048.00 344.96,1048.00
             358.83,1016.15 375.37,985.39 398.29,959.00
             406.15,949.94 416.69,940.09 426.17,932.72
             426.17,932.72 444.02,920.10 444.02,920.10
             448.41,916.00 445.86,913.65 448.57,910.99
             450.93,908.68 457.23,907.91 460.15,903.79
             462.67,900.22 463.71,887.02 464.61,882.00
             464.61,882.00 475.15,834.00 475.15,834.00
             480.52,813.61 491.49,784.21 500.31,765.00
             500.31,765.00 520.00,725.00 520.00,725.00
             507.80,721.51 494.51,707.03 491.00,695.00
             491.00,695.00 454.49,737.17 454.49,737.17
             454.49,737.17 409.72,789.00 409.72,789.00
             409.72,789.00 377.49,825.72 377.49,825.72
             353.96,853.42 331.23,882.75 302.00,904.76
             277.81,922.98 243.08,932.34 213.84,939.04
             213.84,939.04 168.61,950.78 168.61,950.78
             168.61,950.78 137.00,958.37 137.00,958.37
             137.00,958.37 89.00,970.37 89.00,970.37
             79.14,972.81 69.22,975.92 59.00,976.00
             59.00,976.00 55.00,976.00 55.00,976.00
             46.62,975.96 42.31,974.17 35.00,970.14
             16.91,960.14 7.20,941.54 10.21,921.00
             10.88,916.41 18.32,900.39 20.54,895.00
             31.27,868.89 43.14,846.45 62.00,825.01
             62.00,825.01 86.01,801.26 86.01,801.26
             113.20,778.64 164.12,749.94 196.00,730.99
             196.00,730.99 327.00,652.09 327.00,652.09
             327.00,652.09 422.00,595.00 422.00,595.00
             422.00,595.00 406.00,585.20 406.00,585.20
             406.00,585.20 349.00,549.91 349.00,549.91
             339.43,544.19 325.03,535.22 314.58,531.80
             306.14,529.04 291.98,528.01 283.00,528.00
             283.00,528.00 159.00,526.00 159.00,526.00
             159.00,526.00 125.00,525.00 125.00,525.00
             125.00,525.00 78.00,524.00 78.00,524.00
             78.00,524.00 53.00,524.00 53.00,524.00
             53.00,524.00 28.00,523.00 28.00,523.00
             28.00,523.00 19.00,523.00 19.00,523.00
             13.78,522.99 6.10,522.91 2.31,518.77
             -3.99,511.88 5.01,496.43 10.04,494.28
             13.33,492.87 19.65,495.71 23.00,496.83
             32.90,500.15 42.69,502.76 52.99,504.57
             82.38,509.76 125.51,509.34 156.00,509.00
             156.00,509.00 174.09,508.09 174.09,508.09
             174.09,508.09 264.00,502.09 264.00,502.09
             289.63,500.15 315.42,498.08 341.00,502.09
             366.97,506.17 390.72,516.93 413.00,530.57
             421.92,536.03 430.97,541.21 439.00,548.00
             439.00,548.00 446.00,542.00 446.00,542.00
             448.90,544.90 458.30,555.41 462.00,555.55
             464.66,555.64 467.25,552.71 469.00,550.99
             472.83,547.26 485.41,535.72 486.11,531.00
             486.86,526.00 479.52,516.92 479.15,514.00
             478.41,508.10 488.26,506.09 485.37,501.28
             484.25,499.41 476.29,494.09 474.00,492.35
             474.00,492.35 446.00,470.54 446.00,470.54
             431.69,458.74 426.81,443.64 412.00,435.21
             403.60,430.42 384.96,427.91 375.00,425.52
             375.00,425.52 319.00,412.50 319.00,412.50
             319.00,412.50 296.00,406.80 296.00,406.80
             296.00,406.80 228.00,391.21 228.00,391.21
             222.50,390.02 205.77,386.86 202.74,382.78
             198.43,376.99 202.71,364.14 212.00,365.42
             212.00,365.42 231.00,371.92 231.00,371.92
             231.00,371.92 259.00,380.12 259.00,380.12
             287.24,387.54 316.05,392.18 344.83,396.93
             344.83,396.93 395.00,402.23 395.00,402.23
             395.00,402.23 418.01,404.86 418.01,404.86
             430.00,405.81 442.48,405.10 454.00,409.00
             452.94,400.96 452.99,399.00 453.00,391.00
             453.04,367.39 468.04,341.72 488.00,329.43
             494.44,325.46 500.60,322.79 508.00,321.21
             513.57,320.02 522.46,319.32 527.00,316.30
             532.55,312.61 534.90,307.71 537.75,302.00
             540.18,297.15 542.60,293.63 541.48,288.00
             539.93,280.18 533.22,266.17 529.30,259.00
             511.50,226.38 484.01,205.44 447.00,200.13
             424.13,196.85 400.47,198.42 379.00,188.36
             370.65,184.45 361.14,179.21 358.00,170.00
             363.50,171.60 366.89,174.33 372.00,176.69
             379.92,180.34 384.54,181.59 393.00,183.20
             417.48,187.84 442.78,184.50 467.00,190.88
             498.96,199.31 522.06,224.17 536.24,253.00
             541.12,262.91 546.76,276.93 547.00,288.00
             547.00,288.00 566.01,273.95 566.01,273.95
             566.01,273.95 567.00,261.00 567.00,261.00
             567.00,261.00 567.00,234.00 567.00,234.00
             567.00,234.00 566.00,218.00 566.00,218.00
             566.00,218.00 566.00,64.00 566.00,64.00
             566.00,64.00 567.00,51.00 567.00,51.00
             567.00,51.00 567.00,37.00 567.00,37.00
             567.00,37.00 567.96,26.00 567.96,26.00
             567.96,26.00 570.00,0.00 570.00,0.00
             570.00,0.00 572.00,0.00 572.00,0.00 Z
           M 706.00,411.00
           C 706.00,411.00 707.00,412.00 707.00,412.00
             707.00,412.00 707.00,411.00 707.00,411.00
             707.00,411.00 706.00,411.00 706.00,411.00 Z
           M 726.00,592.00
           C 726.00,592.00 727.00,593.00 727.00,593.00
             727.00,593.00 727.00,592.00 727.00,592.00
             727.00,592.00 726.00,592.00 726.00,592.00 Z
           M 727.00,593.00
           C 727.00,593.00 728.00,594.00 728.00,594.00
             728.00,594.00 728.00,593.00 728.00,593.00
             728.00,593.00 727.00,593.00 727.00,593.00 Z" />
</svg>
