<?xml version="1.0" encoding="UTF-8" standalone="no"?>
<!DOCTYPE svg PUBLIC "-//W3C//DTD SVG 20010904//EN"
              "http://www.w3.org/TR/2001/REC-SVG-20010904/DTD/svg10.dtd">

<svg xmlns="http://www.w3.org/2000/svg"
     viewBox="0 0 1429 1677">
  <path 
        d="M 705.00,1.00
           C 705.00,1.00 707.00,34.00 707.00,34.00
             707.00,34.00 708.00,50.00 708.00,50.00
             708.00,50.00 708.00,68.00 708.00,68.00
             708.00,68.00 709.00,84.00 709.00,84.00
             709.00,84.00 709.00,116.00 709.00,116.00
             709.00,116.00 708.00,133.00 708.00,133.00
             708.00,133.00 708.00,184.00 708.00,184.00
             708.00,184.00 707.00,201.00 707.00,201.00
             707.00,201.00 707.00,227.00 707.00,227.00
             707.00,227.00 708.00,244.00 708.00,244.00
             708.00,244.00 708.00,263.00 708.00,263.00
             708.00,263.00 709.00,276.00 709.00,276.00
             722.61,276.01 732.04,278.61 743.00,287.00
             743.82,277.26 750.33,260.87 754.76,252.00
             767.64,226.24 789.34,203.56 817.00,194.08
             841.16,185.79 867.14,189.18 892.00,185.57
             900.83,184.29 909.86,181.99 918.00,178.34
             918.00,178.34 932.00,171.00 932.00,171.00
             912.81,201.20 866.66,196.28 836.00,201.43
             804.29,206.77 777.35,228.58 761.42,256.00
             757.77,262.28 748.06,281.25 747.66,288.00
             747.42,292.06 752.51,297.06 754.69,301.00
             757.63,306.32 760.11,313.73 765.04,317.35
             770.39,321.27 780.30,321.26 787.00,322.90
             797.90,325.56 807.92,331.31 816.00,339.04
             835.32,357.52 843.80,381.62 839.73,408.00
             837.69,421.17 832.90,428.54 832.00,435.00
             837.35,424.03 855.11,400.03 865.00,393.22
             874.55,386.64 891.72,381.57 903.00,377.66
             903.00,377.66 958.00,356.80 958.00,356.80
             1006.64,337.19 1059.37,311.42 1105.00,285.58
             1105.00,285.58 1144.00,262.58 1144.00,262.58
             1144.00,262.58 1172.00,245.00 1172.00,245.00
             1181.16,256.59 1175.98,268.79 1165.00,276.84
             1158.87,281.33 1145.38,287.56 1138.00,291.25
             1138.00,291.25 1093.00,313.75 1093.00,313.75
             1093.00,313.75 969.00,375.75 969.00,375.75
             969.00,375.75 929.00,395.75 929.00,395.75
             921.78,399.36 912.21,403.64 906.00,408.52
             895.79,416.55 891.57,425.62 884.65,436.00
             879.98,442.99 870.86,453.99 864.99,460.00
             849.17,476.20 830.77,493.01 818.34,512.00
             815.39,516.51 812.62,521.15 810.26,526.00
             809.21,528.13 807.57,530.86 808.48,533.28
             809.65,536.42 821.70,547.54 824.83,551.00
             826.52,552.87 829.66,557.14 832.01,557.81
             834.35,558.47 836.30,556.72 838.00,555.39
             838.00,555.39 852.00,542.01 852.00,542.01
             852.00,542.01 867.00,528.28 867.00,528.28
             894.26,504.31 923.78,482.33 958.00,469.42
             995.13,455.42 1049.74,453.86 1090.00,449.83
             1150.77,443.76 1234.37,433.03 1293.00,418.63
             1321.68,411.58 1350.14,404.22 1378.00,394.31
             1378.00,394.31 1408.00,382.80 1408.00,382.80
             1408.00,382.80 1421.96,377.27 1421.96,377.27
             1427.77,376.76 1429.16,386.81 1428.91,391.00
             1427.79,409.14 1411.36,416.47 1396.00,420.12
             1396.00,420.12 1355.00,427.25 1355.00,427.25
             1355.00,427.25 1281.00,439.59 1281.00,439.59
             1281.00,439.59 1087.00,471.92 1087.00,471.92
             1087.00,471.92 1027.00,481.92 1027.00,481.92
             1015.62,483.80 998.39,486.12 988.00,490.06
             972.45,495.97 949.55,512.64 935.00,522.33
             906.92,541.06 877.97,559.03 854.00,583.00
             862.02,588.74 867.28,596.10 874.01,603.00
             874.01,603.00 913.09,644.00 913.09,644.00
             913.09,644.00 927.91,659.00 927.91,659.00
             927.91,659.00 1016.09,752.00 1016.09,752.00
             1016.09,752.00 1029.96,766.00 1029.96,766.00
             1029.96,766.00 1070.96,809.00 1070.96,809.00
             1070.96,809.00 1141.04,883.00 1141.04,883.00
             1163.82,906.82 1200.70,942.96 1217.58,970.00
             1236.27,999.96 1244.96,1024.58 1251.80,1059.00
             1251.80,1059.00 1256.92,1096.00 1256.92,1096.00
             1256.92,1117.90 1241.46,1136.15 1220.00,1139.92
             1217.03,1140.44 1214.03,1141.03 1211.00,1140.82
             1196.52,1139.78 1188.33,1133.72 1176.00,1127.25
             1176.00,1127.25 1115.00,1093.30 1115.00,1093.30
             1115.00,1093.30 1051.00,1057.20 1051.00,1057.20
             1034.61,1047.36 1016.02,1035.21 1003.17,1021.00
             985.26,1001.20 973.52,977.92 962.22,954.00
             962.22,954.00 935.74,899.00 935.74,899.00
             935.74,899.00 851.26,724.00 851.26,724.00
             851.26,724.00 826.26,672.00 826.26,672.00
             826.26,672.00 815.00,649.00 815.00,649.00
             815.00,649.00 812.00,672.00 812.00,672.00
             807.96,691.88 793.77,719.93 773.00,726.00
             773.00,726.00 792.22,764.00 792.22,764.00
             801.94,784.58 811.33,810.08 817.57,832.00
             817.57,832.00 828.57,880.00 828.57,880.00
             829.31,884.42 831.29,902.19 832.98,904.78
             834.86,907.65 838.94,908.62 842.00,909.81
             842.00,909.81 859.00,917.26 859.00,917.26
             875.68,925.81 890.96,936.93 905.00,949.28
             942.84,982.59 971.81,1031.94 995.69,1076.00
             1003.53,1090.46 1011.88,1103.94 1016.12,1120.00
             1019.64,1133.38 1019.80,1147.30 1021.17,1161.00
             1022.61,1175.45 1025.40,1189.85 1028.65,1204.00
             1028.65,1204.00 1055.00,1308.00 1055.00,1308.00
             1055.00,1308.00 1089.42,1496.00 1089.42,1496.00
             1097.37,1532.20 1107.07,1568.76 1121.42,1603.00
             1121.42,1603.00 1137.25,1637.00 1137.25,1637.00
             1140.72,1643.94 1145.62,1652.18 1145.96,1660.00
             1146.65,1675.85 1134.17,1680.18 1127.09,1674.57
             1125.28,1673.13 1123.68,1671.00 1122.53,1669.00
             1119.96,1664.52 1117.12,1653.41 1115.58,1648.00
             1115.58,1648.00 1105.58,1613.00 1105.58,1613.00
             1105.58,1613.00 1076.85,1510.00 1076.85,1510.00
             1053.70,1424.50 1032.17,1337.59 1018.58,1250.00
             1018.58,1250.00 1005.83,1155.00 1005.83,1155.00
             1005.83,1155.00 1003.00,1122.00 1003.00,1122.00
             999.99,1121.99 996.89,1122.13 994.00,1121.15
             984.64,1117.98 979.17,1104.62 975.95,1096.00
             970.87,1082.42 962.59,1062.44 955.58,1050.00
             936.44,1016.07 914.77,986.03 881.00,965.06
             864.05,954.54 853.49,951.05 835.00,945.00
             835.00,945.00 832.83,1005.00 832.83,1005.00
             826.13,1071.99 802.92,1136.46 768.40,1194.00
             758.09,1211.18 746.55,1227.39 734.00,1243.00
             729.03,1249.17 718.97,1261.63 713.00,1266.00
             655.52,1203.45 614.54,1123.81 599.42,1040.00
             599.42,1040.00 593.00,992.00 593.00,992.00
             593.00,992.00 593.00,984.00 593.00,984.00
             593.00,984.00 592.00,972.00 592.00,972.00
             592.00,972.00 592.00,946.00 592.00,946.00
             581.42,947.63 568.55,953.90 559.00,958.76
             521.87,977.63 490.78,1015.20 472.25,1052.00
             472.25,1052.00 452.81,1096.00 452.81,1096.00
             449.48,1104.59 444.44,1117.71 435.00,1121.12
             432.20,1122.13 428.94,1121.99 426.00,1122.00
             426.00,1122.00 425.09,1133.00 425.09,1133.00
             425.09,1133.00 422.16,1163.00 422.16,1163.00
             422.16,1163.00 410.42,1249.00 410.42,1249.00
             396.34,1339.72 368.50,1453.25 343.29,1542.00
             343.29,1542.00 311.29,1655.00 311.29,1655.00
             309.69,1660.58 307.63,1668.47 303.61,1672.79
             298.02,1678.80 289.38,1677.84 285.01,1670.96
             281.65,1665.68 282.44,1657.64 284.44,1652.00
             284.44,1652.00 303.14,1613.00 303.14,1613.00
             324.21,1565.64 337.38,1510.96 346.58,1460.00
             356.44,1405.33 364.44,1350.26 376.42,1296.00
             376.42,1296.00 400.35,1203.00 400.35,1203.00
             400.35,1203.00 407.83,1160.00 407.83,1160.00
             410.44,1133.06 409.17,1121.38 422.26,1096.00
             422.26,1096.00 438.70,1066.00 438.70,1066.00
             462.45,1022.74 486.53,984.06 523.00,950.09
             536.17,937.82 553.06,926.17 569.00,917.78
             569.00,917.78 586.00,910.20 586.00,910.20
             588.67,909.14 592.35,908.17 594.02,905.73
             595.73,903.21 597.37,887.25 598.08,883.00
             598.08,883.00 608.42,836.00 608.42,836.00
             615.68,809.89 625.01,785.61 636.31,761.00
             636.31,761.00 654.00,726.00 654.00,726.00
             633.74,720.09 619.68,692.31 615.42,673.00
             615.42,673.00 612.00,651.00 612.00,651.00
             612.00,651.00 589.31,699.00 589.31,699.00
             589.31,699.00 539.26,803.00 539.26,803.00
             539.26,803.00 476.26,934.00 476.26,934.00
             461.38,964.75 447.83,997.93 423.91,1022.99
             401.23,1046.74 350.94,1072.87 321.00,1089.30
             321.00,1089.30 259.00,1123.86 259.00,1123.86
             246.09,1131.06 233.15,1139.72 218.00,1140.82
             215.06,1141.03 212.87,1140.54 210.00,1140.13
             187.85,1136.95 171.16,1117.55 172.04,1095.00
             172.04,1095.00 173.85,1079.00 173.85,1079.00
             177.59,1047.64 187.72,1010.45 203.43,983.00
             219.70,954.55 241.47,931.51 263.96,908.00
             263.96,908.00 293.04,877.00 293.04,877.00
             293.04,877.00 305.91,864.00 305.91,864.00
             305.91,864.00 407.96,757.00 407.96,757.00
             407.96,757.00 469.96,692.00 469.96,692.00
             469.96,692.00 481.00,680.00 481.00,680.00
             481.00,680.00 551.00,607.00 551.00,607.00
             551.00,607.00 567.99,589.00 567.99,589.00
             570.02,586.92 573.34,584.27 572.09,581.00
             570.66,577.26 556.83,566.46 553.00,563.40
             553.00,563.40 495.00,523.00 495.00,523.00
             480.37,513.20 456.65,496.08 441.00,490.23
             428.48,485.55 409.60,483.17 396.00,480.92
             396.00,480.92 324.00,468.92 324.00,468.92
             324.00,468.92 147.00,439.41 147.00,439.41
             147.00,439.41 73.00,427.08 73.00,427.08
             73.00,427.08 32.00,419.87 32.00,419.87
             17.15,416.25 0.81,408.60 0.04,391.00
             -0.14,386.85 0.53,377.73 6.04,377.23
             7.94,377.06 15.69,380.68 18.00,381.60
             18.00,381.60 46.00,392.58 46.00,392.58
             74.30,403.16 106.52,411.89 136.00,418.65
             205.90,434.69 277.70,443.93 349.00,450.83
             401.01,455.87 450.81,455.68 498.00,481.86
             522.15,495.26 545.76,513.32 566.00,532.09
             566.00,532.09 586.00,551.00 586.00,551.00
             587.81,552.81 592.52,558.04 594.91,558.38
             597.47,558.74 600.41,554.69 602.04,553.00
             602.04,553.00 617.68,537.04 617.68,537.04
             618.69,535.85 620.18,534.15 620.46,532.58
             620.79,530.78 619.31,527.66 618.56,526.00
             616.82,522.10 611.72,513.63 609.25,510.00
             593.35,486.58 569.51,467.95 551.61,446.00
             542.02,434.23 535.22,418.68 524.00,409.32
             517.38,403.80 505.96,398.73 498.00,394.75
             498.00,394.75 456.00,373.75 456.00,373.75
             456.00,373.75 317.00,304.25 317.00,304.25
             317.00,304.25 283.00,287.25 283.00,287.25
             276.07,283.78 266.80,279.64 261.02,274.68
             254.70,269.26 248.66,257.10 254.09,248.93
             256.73,245.28 259.70,246.73 263.00,248.93
             263.00,248.93 281.00,260.19 281.00,260.19
             308.39,276.97 336.27,293.39 365.00,307.75
             365.00,307.75 380.00,315.73 380.00,315.73
             380.00,315.73 452.00,348.85 452.00,348.85
             452.00,348.85 522.00,376.31 522.00,376.31
             535.07,380.96 554.07,386.19 565.00,394.16
             577.04,402.94 584.06,416.42 593.00,428.00
             589.30,417.31 586.03,406.45 586.03,395.00
             586.03,370.31 600.96,343.27 622.00,330.46
             628.42,326.55 635.60,323.65 643.00,322.26
             649.03,321.13 656.97,320.98 661.96,317.35
             667.26,313.50 668.53,308.47 671.27,303.00
             672.41,300.72 675.41,296.06 675.84,294.00
             676.46,291.04 674.32,285.93 673.33,283.00
             670.08,273.34 665.61,263.76 660.40,255.00
             641.59,223.39 614.37,204.82 578.00,200.28
             554.91,197.41 532.63,198.91 511.00,188.24
             503.16,184.38 494.85,179.15 491.00,171.00
             506.52,179.68 512.01,182.72 530.00,185.56
             530.00,185.56 545.00,187.00 545.00,187.00
             545.00,187.00 564.00,188.00 564.00,188.00
             574.63,188.02 587.69,189.30 598.00,191.89
             629.29,199.75 656.03,226.09 669.14,255.00
             673.48,264.58 679.51,279.59 680.00,290.00
             680.00,290.00 692.00,281.87 692.00,281.87
             692.00,281.87 699.98,276.73 699.98,276.73
             699.98,276.73 701.00,271.00 701.00,271.00
             701.00,271.00 700.00,253.00 700.00,253.00
             700.00,253.00 700.00,228.00 700.00,228.00
             700.00,228.00 699.00,211.00 699.00,211.00
             699.00,211.00 699.00,73.00 699.00,73.00
             699.00,73.00 700.04,58.00 700.04,58.00
             700.04,58.00 700.04,44.00 700.04,44.00
             700.04,44.00 701.00,31.00 701.00,31.00
             701.00,31.00 703.00,1.00 703.00,1.00
             703.00,1.00 705.00,1.00 705.00,1.00 Z
           M 829.00,437.00
           C 829.00,437.00 830.00,438.00 830.00,438.00
             830.00,438.00 830.00,437.00 830.00,437.00
             830.00,437.00 829.00,437.00 829.00,437.00 Z
           M 827.00,440.00
           C 827.00,440.00 828.00,441.00 828.00,441.00
             828.00,441.00 828.00,440.00 828.00,440.00
             828.00,440.00 827.00,440.00 827.00,440.00 Z
           M 826.00,442.00
           C 826.00,442.00 827.00,443.00 827.00,443.00
             827.00,443.00 827.00,442.00 827.00,442.00
             827.00,442.00 826.00,442.00 826.00,442.00 Z
           M 825.00,443.00
           C 825.00,443.00 826.00,444.00 826.00,444.00
             826.00,444.00 826.00,443.00 826.00,443.00
             826.00,443.00 825.00,443.00 825.00,443.00 Z
           M 824.00,445.00
           C 824.00,445.00 825.00,446.00 825.00,446.00
             825.00,446.00 825.00,445.00 825.00,445.00
             825.00,445.00 824.00,445.00 824.00,445.00 Z
           M 823.00,446.00
           C 823.00,446.00 824.00,447.00 824.00,447.00
             824.00,447.00 824.00,446.00 824.00,446.00
             824.00,446.00 823.00,446.00 823.00,446.00 Z
           M 821.00,449.00
           C 821.00,449.00 822.00,450.00 822.00,450.00
             822.00,450.00 822.00,449.00 822.00,449.00
             822.00,449.00 821.00,449.00 821.00,449.00 Z
           M 811.00,459.83
           C 802.60,467.50 793.25,474.07 783.00,479.00
             783.00,479.00 793.00,498.00 793.00,498.00
             793.00,498.00 810.81,468.00 810.81,468.00
             810.81,468.00 821.00,450.00 821.00,450.00
             821.00,450.00 811.00,459.83 811.00,459.83 Z
           M 611.00,456.00
           C 611.00,456.00 612.00,457.00 612.00,457.00
             612.00,457.00 612.00,456.00 612.00,456.00
             612.00,456.00 611.00,456.00 611.00,456.00 Z
           M 618.60,469.00
           C 618.60,469.00 636.00,497.00 636.00,497.00
             636.00,497.00 644.00,479.00 644.00,479.00
             628.81,470.36 626.40,469.31 613.00,457.00
             612.77,461.14 616.50,465.50 618.60,469.00 Z" />
</svg>
