<?xml version="1.0" encoding="UTF-8" standalone="no"?>
<!DOCTYPE svg PUBLIC "-//W3C//DTD SVG 20010904//EN"
              "http://www.w3.org/TR/2001/REC-SVG-20010904/DTD/svg10.dtd">

<svg xmlns="http://www.w3.org/2000/svg"
     viewBox="0 0 1543 1664">
  <path id="Selection #1"
        d="M 751.00,0.00
           C 751.00,0.00 753.00,23.00 753.00,23.00
             753.00,23.00 754.00,40.00 754.00,40.00
             754.00,40.00 754.00,59.00 754.00,59.00
             754.00,59.00 755.00,74.00 755.00,74.00
             755.00,74.00 755.00,123.00 755.00,123.00
             755.00,123.00 754.00,140.00 754.00,140.00
             754.00,140.00 754.00,191.00 754.00,191.00
             754.00,191.00 753.00,207.00 753.00,207.00
             753.00,207.00 753.00,220.00 753.00,220.00
             753.00,220.00 754.00,235.00 754.00,235.00
             754.00,235.00 754.00,254.00 754.00,254.00
             754.00,254.00 755.00,275.00 755.00,275.00
             770.68,275.00 775.72,276.15 789.00,285.00
             789.45,275.34 794.61,262.78 798.71,254.00
             812.07,225.37 835.69,199.73 867.00,191.16
             891.54,184.44 917.18,187.89 942.00,183.39
             962.59,179.65 967.39,173.02 978.00,170.00
             973.95,179.50 964.27,185.61 955.00,189.40
             936.39,197.00 915.73,197.26 896.00,199.17
             855.67,203.08 826.82,222.66 806.72,258.00
             803.51,263.65 795.54,279.00 794.78,285.00
             794.10,290.36 799.35,296.29 801.88,301.00
             804.96,306.70 807.37,312.52 813.00,316.30
             818.77,320.18 831.12,320.21 840.00,323.44
             850.67,327.31 859.21,333.71 866.91,342.00
             881.26,357.46 887.03,375.28 887.00,396.00
             886.99,401.40 886.37,407.75 885.10,413.00
             883.86,418.17 881.70,421.61 882.00,427.00
             884.11,421.47 887.94,416.71 891.47,412.00
             897.44,404.06 904.58,395.42 913.00,390.09
             921.38,384.79 954.22,374.06 966.00,369.58
             966.00,369.58 1015.00,350.58 1015.00,350.58
             1060.81,331.35 1105.84,309.47 1149.00,284.85
             1149.00,284.85 1197.00,256.32 1197.00,256.32
             1200.18,254.31 1214.27,244.93 1216.90,244.82
             1221.97,244.61 1223.16,254.37 1222.90,258.00
             1222.11,269.38 1213.00,275.70 1204.00,280.85
             1204.00,280.85 1142.00,312.25 1142.00,312.25
             1142.00,312.25 1015.00,375.75 1015.00,375.75
             1015.00,375.75 977.00,394.75 977.00,394.75
             968.23,399.14 958.57,403.23 951.00,409.46
             951.00,409.46 914.91,456.00 914.91,456.00
             898.35,473.78 879.83,489.79 866.03,510.00
             863.08,514.32 854.40,526.94 855.96,532.00
             857.12,535.80 864.45,542.92 868.00,544.69
             869.94,545.66 873.71,546.39 875.99,547.01
             877.65,547.46 880.27,548.33 881.98,548.20
             885.14,547.97 885.82,545.65 888.37,544.55
             890.35,543.70 892.07,544.26 895.00,542.40
             895.00,542.40 922.00,518.43 922.00,518.43
             944.44,499.76 970.64,480.73 998.00,470.06
             1041.75,453.00 1095.38,452.49 1142.00,447.83
             1217.66,440.27 1293.40,429.32 1367.00,409.88
             1389.32,403.99 1411.45,397.54 1433.00,389.19
             1433.00,389.19 1457.00,379.95 1457.00,379.95
             1459.62,378.97 1465.49,376.33 1467.98,376.35
             1474.82,376.43 1475.10,385.07 1474.99,390.00
             1474.44,412.52 1449.96,418.40 1432.00,421.41
             1432.00,421.41 1282.00,446.59 1282.00,446.59
             1282.00,446.59 1134.00,471.25 1134.00,471.25
             1134.00,471.25 1072.00,481.59 1072.00,481.59
             1060.35,483.54 1043.60,485.75 1033.00,490.29
             1017.00,497.14 1000.35,509.08 986.00,518.98
             986.00,518.98 949.00,543.67 949.00,543.67
             949.00,543.67 928.00,558.00 928.00,558.00
             934.84,561.32 958.40,566.22 967.00,568.00
             967.00,568.00 1024.09,580.83 1024.09,580.83
             1024.09,580.83 1046.00,585.89 1046.00,585.89
             1052.03,587.40 1054.61,589.26 1061.00,588.00
             1066.20,592.19 1073.71,592.32 1080.00,593.87
             1080.00,593.87 1125.00,604.15 1125.00,604.15
             1125.00,604.15 1183.00,617.42 1183.00,617.42
             1183.00,617.42 1266.00,636.42 1266.00,636.42
             1266.00,636.42 1277.00,639.34 1277.00,639.34
             1277.00,639.34 1309.00,646.00 1309.00,646.00
             1315.58,647.37 1321.23,650.09 1328.00,649.00
             1333.18,653.15 1351.56,655.78 1359.00,657.73
             1389.21,665.69 1399.18,666.84 1430.00,678.58
             1437.25,681.34 1444.21,684.37 1451.00,688.14
             1454.39,690.02 1456.84,690.64 1459.00,694.00
             1459.00,694.00 1461.00,693.00 1461.00,693.00
             1461.00,693.00 1487.25,712.67 1487.25,712.67
             1500.79,723.62 1527.06,750.02 1536.32,764.00
             1541.56,771.90 1543.09,779.67 1543.00,789.00
             1542.96,792.26 1541.33,797.49 1543.00,800.00
             1536.54,810.38 1536.70,815.46 1525.71,824.28
             1517.79,830.64 1507.67,832.77 1497.83,833.94
             1497.83,833.94 1454.04,837.14 1454.04,837.14
             1454.04,837.14 1392.00,842.05 1392.00,842.05
             1392.00,842.05 1351.00,845.00 1351.00,845.00
             1351.00,845.00 1328.00,846.00 1328.00,846.00
             1328.00,846.00 1324.00,835.00 1324.00,835.00
             1324.00,835.00 1323.00,846.00 1323.00,846.00
             1306.31,844.69 1290.26,844.41 1273.99,839.63
             1242.32,830.32 1205.92,805.06 1177.00,788.28
             1177.00,788.28 1142.00,767.33 1142.00,767.33
             1137.69,764.87 1127.43,759.78 1125.00,756.00
             1125.00,756.00 1123.00,757.00 1123.00,757.00
             1123.00,757.00 1115.00,750.00 1115.00,750.00
             1115.00,750.00 1113.00,751.00 1113.00,751.00
             1113.00,751.00 1087.00,734.67 1087.00,734.67
             1087.00,734.67 1039.00,706.08 1039.00,706.08
             1039.00,706.08 1008.00,687.45 1008.00,687.45
             1008.00,687.45 997.00,679.35 997.00,679.35
             997.00,679.35 936.00,648.75 936.00,648.75
             936.00,648.75 890.00,625.75 890.00,625.75
             890.00,625.75 864.00,613.00 864.00,613.00
             864.00,613.00 864.00,640.00 864.00,640.00
             864.00,640.00 863.00,654.00 863.00,654.00
             863.00,654.00 861.00,650.00 861.00,650.00
             860.10,669.53 855.36,688.66 844.33,705.00
             838.48,713.66 830.28,722.06 820.00,725.00
             820.00,725.00 838.52,762.00 838.52,762.00
             847.88,781.64 860.11,813.92 865.12,835.00
             865.12,835.00 875.57,882.00 875.57,882.00
             876.47,887.38 877.18,899.83 880.51,903.66
             883.46,907.06 898.86,912.69 904.00,915.25
             918.69,922.54 932.34,931.65 945.00,942.08
             983.11,973.51 1011.71,1019.03 1035.30,1062.00
             1035.30,1062.00 1057.12,1103.00 1057.12,1103.00
             1057.12,1103.00 1059.25,1110.42 1059.25,1110.42
             1060.68,1114.40 1061.39,1113.21 1063.00,1120.00
             1063.00,1120.00 1067.00,1119.00 1067.00,1119.00
             1066.31,1133.04 1058.32,1145.91 1051.98,1158.00
             1042.80,1175.51 1034.33,1193.25 1027.94,1212.00
             1027.94,1212.00 1002.69,1286.00 1002.69,1286.00
             1002.69,1286.00 993.37,1313.00 993.37,1313.00
             993.37,1313.00 939.74,1441.09 939.74,1441.09
             926.68,1472.56 913.14,1503.53 903.43,1536.28
             897.80,1555.23 892.42,1574.33 889.05,1593.83
             889.05,1593.83 882.41,1642.17 882.41,1642.17
             880.76,1651.96 873.38,1666.98 860.98,1662.84
             847.87,1658.46 854.10,1639.48 857.22,1630.17
             857.22,1630.17 869.60,1590.04 869.60,1590.04
             869.60,1590.04 887.58,1533.00 887.58,1533.00
             887.58,1533.00 898.99,1497.46 898.99,1497.46
             898.99,1497.46 928.70,1408.28 928.70,1408.28
             949.32,1349.78 970.81,1291.78 996.84,1235.42
             996.84,1235.42 1025.84,1174.42 1025.84,1174.42
             1031.63,1161.97 1039.60,1144.16 1047.00,1133.00
             1039.95,1129.24 1043.11,1125.82 1039.42,1121.46
             1037.04,1118.65 1033.69,1118.70 1028.09,1110.00
             1024.03,1103.69 1020.65,1093.21 1017.80,1086.00
             1017.80,1086.00 1002.75,1053.00 1002.75,1053.00
             978.51,1004.84 935.42,957.41 881.00,945.00
             881.00,945.00 881.00,963.00 881.00,963.00
             881.00,963.00 880.00,979.00 880.00,979.00
             879.98,994.52 878.99,1009.63 876.73,1025.00
             867.73,1086.12 844.37,1145.46 812.19,1198.00
             801.35,1215.70 788.57,1233.09 775.25,1249.00
             772.40,1252.39 763.34,1264.39 759.00,1263.97
             755.38,1263.62 746.55,1252.16 744.00,1249.00
             730.92,1232.81 719.72,1217.42 708.34,1200.00
             672.73,1145.46 649.59,1080.57 641.85,1016.00
             641.85,1016.00 639.04,996.00 639.04,996.00
             639.04,996.00 639.04,986.00 639.04,986.00
             639.04,986.00 638.00,974.00 638.00,974.00
             638.00,974.00 638.00,946.00 638.00,946.00
             627.29,946.97 614.60,953.94 605.00,958.75
             567.66,977.47 536.58,1016.08 518.25,1053.00
             518.25,1053.00 496.22,1103.00 496.22,1103.00
             492.20,1111.49 487.93,1119.11 478.00,1121.00
             479.84,1128.82 475.54,1129.72 476.92,1135.00
             476.92,1135.00 483.65,1149.00 483.65,1149.00
             483.65,1149.00 494.33,1172.00 494.33,1172.00
             494.33,1172.00 513.47,1215.00 513.47,1215.00
             513.47,1215.00 535.16,1265.75 535.16,1265.75
             535.16,1265.75 559.71,1330.91 559.71,1330.91
             583.68,1398.25 605.58,1466.59 624.85,1535.42
             624.85,1535.42 646.14,1609.00 646.14,1609.00
             646.14,1609.00 655.57,1645.26 655.57,1645.26
             656.28,1654.80 648.76,1662.76 639.00,1659.39
             634.03,1657.66 630.99,1653.54 628.71,1649.00
             625.96,1643.54 625.51,1633.39 624.78,1627.08
             624.78,1627.08 619.60,1585.99 619.60,1585.99
             613.13,1548.41 601.44,1511.87 588.73,1476.00
             588.73,1476.00 572.61,1435.00 572.61,1435.00
             572.61,1435.00 525.22,1317.00 525.22,1317.00
             525.22,1317.00 487.39,1201.00 487.39,1201.00
             487.39,1201.00 470.36,1158.83 470.36,1158.83
             464.99,1148.03 454.80,1130.47 453.00,1119.00
             454.74,1118.87 456.78,1118.94 458.18,1117.69
             459.38,1116.62 460.50,1110.98 461.23,1109.00
             463.41,1103.10 466.10,1097.49 469.14,1092.00
             484.80,1063.71 499.64,1034.67 518.02,1008.00
             536.53,981.15 561.27,951.49 588.00,932.72
             598.99,925.00 608.77,918.92 621.00,913.31
             625.61,911.19 636.45,907.60 639.15,903.79
             641.67,900.22 642.71,887.02 643.61,882.00
             643.61,882.00 654.15,834.00 654.15,834.00
             659.52,813.61 670.49,784.21 679.31,765.00
             679.31,765.00 699.00,725.00 699.00,725.00
             680.16,719.62 666.40,693.93 661.89,676.00
             661.89,676.00 657.00,652.00 657.00,652.00
             657.00,652.00 655.00,656.00 655.00,656.00
             655.00,638.97 650.22,635.40 648.00,621.00
             648.00,621.00 622.00,636.96 622.00,636.96
             622.00,636.96 586.00,657.61 586.00,657.61
             586.00,657.61 503.01,707.37 503.01,707.37
             503.01,707.37 495.83,710.89 495.83,710.89
             495.83,710.89 456.00,734.67 456.00,734.67
             456.00,734.67 430.00,751.00 430.00,751.00
             430.00,751.00 428.00,750.00 428.00,750.00
             428.00,750.00 420.00,757.00 420.00,757.00
             420.00,757.00 418.00,756.00 418.00,756.00
             415.51,759.87 404.44,765.27 400.00,767.92
             400.00,767.92 356.00,794.31 356.00,794.31
             330.81,809.40 295.92,832.11 268.09,839.91
             240.05,847.77 219.85,845.25 192.00,845.00
             192.00,845.00 151.04,842.05 151.04,842.05
             151.04,842.05 113.00,839.13 113.00,839.13
             113.00,839.13 59.00,835.07 59.00,835.07
             46.18,834.24 29.88,833.26 19.09,825.64
             7.28,817.31 6.71,810.77 0.01,800.00
             1.48,797.99 -0.04,789.27 0.01,786.01
             0.16,777.83 2.73,769.76 7.35,763.00
             16.76,749.23 42.34,723.52 55.75,712.67
             55.75,712.67 82.00,693.00 82.00,693.00
             82.00,693.00 84.00,694.00 84.00,694.00
             86.16,690.64 88.61,690.02 92.00,688.14
             98.79,684.37 105.75,681.34 113.00,678.58
             143.82,666.84 153.79,665.69 184.00,657.73
             191.44,655.78 209.82,653.15 215.00,649.00
             221.77,650.09 227.42,647.37 234.00,646.00
             234.00,646.00 266.00,639.34 266.00,639.34
             266.00,639.34 277.00,636.42 277.00,636.42
             277.00,636.42 360.00,617.42 360.00,617.42
             360.00,617.42 418.00,604.15 418.00,604.15
             418.00,604.15 463.00,593.87 463.00,593.87
             469.20,592.34 476.93,592.08 482.00,588.00
             488.39,589.26 490.97,587.40 497.00,585.89
             497.00,585.89 518.83,580.83 518.83,580.83
             518.83,580.83 572.00,568.88 572.00,568.88
             580.43,566.94 590.25,565.76 598.00,562.00
             598.00,562.00 578.00,548.67 578.00,548.67
             578.00,548.67 523.00,510.67 523.00,510.67
             512.69,503.80 498.46,494.45 487.00,490.06
             473.50,484.90 457.31,482.99 443.00,480.59
             443.00,480.59 377.00,469.59 377.00,469.59
             377.00,469.59 162.00,433.75 162.00,433.75
             162.00,433.75 101.00,423.42 101.00,423.42
             89.26,421.31 75.92,419.90 65.00,415.13
             53.09,409.92 46.00,402.34 46.00,389.00
             46.00,386.15 45.94,382.63 47.31,380.06
             49.56,375.83 52.92,375.82 57.00,377.09
             57.00,377.09 80.00,386.20 80.00,386.20
             113.54,399.62 148.74,409.75 184.00,417.58
             248.21,431.83 313.59,441.29 379.00,447.83
             419.42,451.87 468.59,453.15 507.00,464.72
             541.01,474.96 566.56,492.44 594.00,514.40
             594.00,514.40 612.00,530.01 612.00,530.01
             618.24,536.08 625.76,543.83 635.00,544.00
             639.18,544.07 651.82,544.57 655.00,542.98
             657.33,541.81 660.02,539.00 661.70,537.00
             663.38,534.99 665.18,532.76 665.17,530.00
             665.16,525.56 656.98,513.01 654.25,509.00
             638.02,485.11 614.34,467.57 596.67,445.00
             588.94,435.14 579.91,418.31 570.96,410.30
             562.56,402.78 551.99,398.58 542.00,393.74
             542.00,393.74 506.00,375.75 506.00,375.75
             506.00,375.75 377.00,311.25 377.00,311.25
             377.00,311.25 317.00,281.00 317.00,281.00
             307.25,275.42 298.58,269.37 298.04,257.00
             297.84,252.43 298.64,245.02 305.00,245.70
             308.54,246.08 323.97,256.43 328.00,258.95
             328.00,258.95 377.00,287.85 377.00,287.85
             419.09,311.86 474.88,337.75 520.00,355.80
             520.00,355.80 570.00,375.31 570.00,375.31
             583.77,380.21 600.15,384.51 612.00,393.16
             623.73,401.72 627.29,410.70 636.00,421.00
             632.65,404.34 631.97,409.51 632.00,391.00
             632.03,369.44 644.81,345.55 662.00,332.76
             668.55,327.89 677.04,323.55 685.00,321.65
             690.97,320.24 701.29,319.44 706.00,316.30
             711.22,312.82 713.55,308.39 716.25,303.00
             719.12,297.26 721.89,293.63 720.24,287.00
             718.12,278.44 712.56,266.79 708.30,259.00
             690.69,226.73 664.37,206.54 628.00,200.43
             604.33,196.46 580.44,198.87 558.00,188.36
             549.65,184.45 540.14,179.21 537.00,170.00
             542.50,171.60 545.89,174.33 551.00,176.69
             558.92,180.34 563.54,181.59 572.00,183.20
             596.47,187.84 621.81,184.50 646.00,190.88
             678.01,199.33 701.04,224.12 715.24,253.00
             720.12,262.91 725.76,276.93 726.00,288.00
             726.00,288.00 745.01,273.95 745.01,273.95
             745.01,273.95 746.00,261.00 746.00,261.00
             746.00,261.00 746.00,234.00 746.00,234.00
             746.00,234.00 745.00,218.00 745.00,218.00
             745.00,218.00 745.00,64.00 745.00,64.00
             745.00,64.00 746.00,51.00 746.00,51.00
             746.00,51.00 746.00,37.00 746.00,37.00
             746.00,37.00 746.96,26.00 746.96,26.00
             746.96,26.00 749.00,0.00 749.00,0.00
             749.00,0.00 751.00,0.00 751.00,0.00 Z
           M 880.00,427.00
           C 880.00,427.00 881.00,428.00 881.00,428.00
             881.00,428.00 881.00,427.00 881.00,427.00
             881.00,427.00 880.00,427.00 880.00,427.00 Z
           M 863.00,453.00
           C 863.00,453.00 864.00,454.00 864.00,454.00
             864.00,454.00 864.00,453.00 864.00,453.00
             864.00,453.00 863.00,453.00 863.00,453.00 Z
           M 852.00,463.25
           C 852.00,463.25 830.00,478.00 830.00,478.00
             830.00,478.00 838.00,495.00 838.00,495.00
             838.00,495.00 840.00,495.00 840.00,495.00
             840.00,495.00 863.00,454.00 863.00,454.00
             863.00,454.00 852.00,463.25 852.00,463.25 Z
           M 664.81,468.00
           C 668.48,474.01 677.72,490.95 683.00,494.00
             683.00,494.00 689.00,478.00 689.00,478.00
             676.35,469.77 673.07,469.09 661.00,458.00
             660.49,461.89 662.84,464.77 664.81,468.00 Z" />
</svg>
